<?xml version="1.0" encoding="utf-8"?>
<!-- Generator: Adobe Illustrator 16.0.4, SVG Export Plug-In . SVG Version: 6.00 Build 0)  -->
<!DOCTYPE svg PUBLIC "-//W3C//DTD SVG 1.1//EN" "http://www.w3.org/Graphics/SVG/1.1/DTD/svg11.dtd">
<svg version="1.1" id="Layer_1" xmlns:sketch="http://www.bohemiancoding.com/sketch/ns"
	 xmlns="http://www.w3.org/2000/svg" xmlns:xlink="http://www.w3.org/1999/xlink" x="0px" y="0px" width="100px" height="30px"
	 viewBox="90.64 28.138 100 30" enable-background="new 90.64 28.138 100 30" xml:space="preserve">
<title>Untitled 2 copy</title>
<desc>Created with Sketch.</desc>
<g id="Page-1" sketch:type="MSPage">
	<g id="Imported-Layers" sketch:type="MSLayerGroup">
		<path id="Fill-1" sketch:type="MSShapeGroup" fill="#DD4813" d="M121.464,43.138c0,8.285-6.9,15-15.413,15
			c-8.512,0-15.412-6.716-15.412-15c0-8.284,6.9-15,15.412-15C114.564,28.138,121.464,34.854,121.464,43.138"/>
		<path id="Fill-2" sketch:type="MSShapeGroup" fill="#FFFFFF" d="M98.344,36.26c-0.709-0.01-1.292,0.542-1.302,1.232
			c-0.01,0.691,0.557,1.258,1.266,1.268h0.037h15.412c0.71,0.01,1.293-0.542,1.303-1.232c0.01-0.69-0.557-1.258-1.266-1.268
			c-0.012,0-0.024,0-0.037,0H98.344"/>
		<path id="Fill-3" sketch:type="MSShapeGroup" fill="#FFFFFF" d="M98.344,40.01c-0.709-0.01-1.292,0.542-1.302,1.232
			c-0.01,0.691,0.557,1.258,1.266,1.268c0.013,0,0.025,0,0.037,0h15.412c0.71,0.01,1.293-0.542,1.303-1.232
			c0.01-0.69-0.557-1.258-1.266-1.268c-0.012,0-0.024,0-0.037,0H98.344"/>
		<path id="Fill-4" sketch:type="MSShapeGroup" fill="#FFFFFF" d="M98.344,43.76c-0.709-0.01-1.292,0.542-1.302,1.232
			c-0.01,0.69,0.557,1.258,1.266,1.268h0.037h15.412c0.71,0.01,1.293-0.541,1.303-1.231s-0.557-1.258-1.266-1.268h-0.037H98.344"/>
		<path id="Fill-5" sketch:type="MSShapeGroup" fill="#FFFFFF" d="M98.344,47.511c-0.709-0.011-1.292,0.541-1.302,1.231
			c-0.01,0.69,0.557,1.258,1.266,1.268h0.037h15.412c0.71,0.01,1.293-0.542,1.303-1.232s-0.557-1.258-1.266-1.267
			c-0.012-0.001-0.024-0.001-0.037,0H98.344"/>
		<path id="Fill-6" sketch:type="MSShapeGroup" fill="#FFFFFF" d="M137.043,48.857c-0.152-0.356-0.354-0.807-0.605-1.354
			c-0.251-0.548-0.521-1.14-0.81-1.776c-0.288-0.636-0.596-1.291-0.923-1.964c-0.327-0.674-0.635-1.311-0.924-1.909
			c-0.289-0.6-0.559-1.136-0.809-1.609c-0.251-0.474-0.453-0.836-0.605-1.088c-0.167,1.746-0.304,3.637-0.41,5.671
			c-0.107,2.035-0.198,4.088-0.274,6.159h-2.167c0.061-1.332,0.129-2.675,0.206-4.028c0.075-1.354,0.163-2.686,0.262-3.996
			c0.098-1.309,0.205-2.585,0.319-3.829c0.113-1.243,0.239-2.419,0.376-3.529h1.938c0.411,0.652,0.852,1.421,1.323,2.308
			c0.471,0.888,0.942,1.817,1.414,2.786c0.472,0.97,0.927,1.939,1.369,2.909c0.441,0.969,0.844,1.853,1.209,2.652
			c0.365-0.799,0.768-1.683,1.209-2.652c0.44-0.97,0.897-1.939,1.368-2.909c0.472-0.969,0.942-1.898,1.414-2.786
			c0.472-0.887,0.912-1.656,1.323-2.308h1.939c0.516,4.958,0.904,10.085,1.163,15.382h-2.167c-0.076-2.071-0.168-4.124-0.274-6.159
			c-0.106-2.034-0.243-3.925-0.41-5.671c-0.151,0.251-0.354,0.614-0.604,1.088c-0.251,0.474-0.521,1.01-0.81,1.609
			c-0.289,0.599-0.597,1.235-0.924,1.909c-0.327,0.673-0.635,1.327-0.923,1.964c-0.29,0.636-0.559,1.229-0.811,1.776
			c-0.251,0.547-0.452,0.998-0.604,1.354H137.043"/>
		<path id="Fill-7" sketch:type="MSShapeGroup" fill="#FFFFFF" d="M160.375,50.987c-0.259-0.666-0.502-1.32-0.73-1.964
			c-0.229-0.645-0.464-1.298-0.707-1.965h-7.161l-1.438,3.929h-2.304c0.608-1.627,1.179-3.133,1.711-4.517
			c0.532-1.385,1.053-2.697,1.562-3.94s1.016-2.431,1.517-3.562c0.5-1.132,1.026-2.253,1.573-3.363h2.029
			c0.548,1.11,1.073,2.23,1.574,3.363c0.501,1.132,1.008,2.319,1.517,3.562s1.03,2.556,1.562,3.94
			c0.532,1.384,1.103,2.89,1.71,4.517H160.375L160.375,50.987z M158.299,45.283c-0.486-1.288-0.969-2.534-1.447-3.74
			c-0.479-1.206-0.978-2.364-1.494-3.474c-0.533,1.11-1.038,2.268-1.518,3.474c-0.479,1.206-0.954,2.453-1.425,3.74H158.299
			L158.299,45.283z"/>
		<path id="Fill-8" sketch:type="MSShapeGroup" fill="#FFFFFF" d="M176.249,50.987c-0.26-0.666-0.502-1.32-0.73-1.964
			c-0.228-0.645-0.463-1.298-0.708-1.965h-7.161l-1.438,3.929h-2.303c0.608-1.627,1.178-3.133,1.711-4.517
			c0.531-1.385,1.052-2.697,1.562-3.94c0.511-1.243,1.016-2.431,1.517-3.562c0.502-1.132,1.026-2.253,1.574-3.363h2.03
			c0.546,1.11,1.071,2.23,1.572,3.363c0.503,1.132,1.008,2.319,1.517,3.562c0.511,1.243,1.031,2.556,1.562,3.94
			c0.532,1.384,1.103,2.89,1.712,4.517H176.249L176.249,50.987z M174.173,45.283c-0.487-1.288-0.97-2.534-1.448-3.74
			c-0.479-1.206-0.978-2.364-1.493-3.474c-0.533,1.11-1.038,2.268-1.518,3.474c-0.479,1.206-0.954,2.453-1.426,3.74H174.173
			L174.173,45.283z"/>
		<path id="Fill-9" sketch:type="MSShapeGroup" fill="#FFFFFF" d="M184.848,49.456c2.31,0,3.466-0.77,3.466-2.309
			c0-0.474-0.103-0.877-0.308-1.209c-0.206-0.333-0.483-0.622-0.833-0.866c-0.351-0.244-0.749-0.455-1.197-0.633
			c-0.449-0.177-0.923-0.355-1.425-0.533c-0.579-0.192-1.125-0.411-1.643-0.655s-0.966-0.533-1.346-0.866s-0.682-0.729-0.901-1.188
			c-0.221-0.458-0.33-1.013-0.33-1.665c0-1.346,0.471-2.397,1.414-3.152c0.942-0.755,2.242-1.132,3.899-1.132
			c0.959,0,1.827,0.101,2.612,0.3c0.782,0.199,1.356,0.418,1.722,0.655l-0.708,1.753c-0.319-0.192-0.795-0.38-1.426-0.566
			c-0.63-0.185-1.364-0.277-2.2-0.277c-0.425,0-0.82,0.044-1.186,0.133s-0.685,0.223-0.958,0.4s-0.489,0.403-0.649,0.677
			c-0.161,0.274-0.24,0.596-0.24,0.966c0,0.414,0.083,0.762,0.252,1.043c0.166,0.281,0.402,0.529,0.706,0.743
			c0.304,0.215,0.658,0.411,1.061,0.588c0.403,0.178,0.848,0.355,1.335,0.532c0.685,0.267,1.312,0.533,1.881,0.799
			c0.57,0.267,1.064,0.585,1.482,0.955c0.418,0.37,0.741,0.81,0.969,1.321c0.229,0.51,0.343,1.128,0.343,1.853
			c0,1.347-0.506,2.383-1.517,3.107c-1.011,0.726-2.437,1.089-4.275,1.089c-0.625,0-1.199-0.042-1.723-0.123
			c-0.525-0.081-0.992-0.178-1.402-0.288c-0.411-0.111-0.765-0.229-1.062-0.355c-0.297-0.125-0.528-0.233-0.695-0.322l0.662-1.775
			c0.349,0.192,0.881,0.407,1.596,0.644C182.938,49.338,183.812,49.456,184.848,49.456"/>
	</g>
</g>
</svg>
