<svg width="19" height="24" viewBox="0 0 19 24" xmlns="http://www.w3.org/2000/svg"><title>remove</title><g fill="gray" fill-rule="evenodd"><path d="M1 5v15.898C1 24 2.067 24 4.733 24h9.534C16.933 24 18 24 18 20.9V5H1zm2 1.6h2V18h1V6.6h3V18h1V6.6h3V18h1V6.6h2v13.216C16 22 15.884 22 13.77 22H5.23C3.117 22 3 22 3 19.816V6.6z"/><path d="M0 5h19v2H0M7.014.547V2.74L8 2.395V1.2c.59-.12 1.004-.203 1.502-.2.498.003.917.086 1.498.2v1.195l1 .345V.547C10.872.072 10.46 0 9.507 0c-.954 0-1.42.087-2.493.547z"/><path d="M9.5 2C6.667 2 3.828 2.52 1 3.49V6h17V3.49C15.166 2.54 12.333 2 9.5 2z"/></g></svg>