<?xml version="1.0" encoding="UTF-8" standalone="no"?>
<!-- Created with Inkscape (http://www.inkscape.org/) -->

<svg
   xmlns:dc="http://purl.org/dc/elements/1.1/"
   xmlns:cc="http://creativecommons.org/ns#"
   xmlns:rdf="http://www.w3.org/1999/02/22-rdf-syntax-ns#"
   xmlns:svg="http://www.w3.org/2000/svg"
   xmlns="http://www.w3.org/2000/svg"
   xmlns:sodipodi="http://sodipodi.sourceforge.net/DTD/sodipodi-0.dtd"
   xmlns:inkscape="http://www.inkscape.org/namespaces/inkscape"
   width="16.000017"
   height="16.000017"
   id="svg5918"
   version="1.1"
   inkscape:version="0.91+devel r"
   viewBox="0 0 16.000017 16.000017"
   sodipodi:docname="information_colour_white.svg">
  <defs
     id="defs5920" />
  <sodipodi:namedview
     id="base"
     pagecolor="#dedede"
     bordercolor="#666666"
     borderopacity="1.0"
     inkscape:pageopacity="0"
     inkscape:pageshadow="2"
     inkscape:zoom="37.947076"
     inkscape:cx="5.3908867"
     inkscape:cy="4.4934838"
     inkscape:document-units="px"
     inkscape:current-layer="g6413"
     showgrid="true"
     fit-margin-top="0"
     fit-margin-left="0"
     fit-margin-right="0"
     fit-margin-bottom="0"
     inkscape:snap-bbox="true"
     inkscape:bbox-paths="true"
     inkscape:bbox-nodes="true"
     inkscape:snap-bbox-edge-midpoints="true"
     inkscape:snap-bbox-midpoints="true"
     inkscape:object-paths="true"
     inkscape:snap-intersection-paths="true"
     inkscape:object-nodes="true"
     inkscape:snap-smooth-nodes="true"
     inkscape:snap-midpoints="true"
     inkscape:snap-object-midpoints="true"
     inkscape:snap-center="true"
     inkscape:snap-global="true">
    <inkscape:grid
       type="xygrid"
       id="grid4137"
       originx="-0.00011142332px"
       originy="-8.9999724px" />
  </sodipodi:namedview>
  <metadata
     id="metadata5923">
    <rdf:RDF>
      <cc:Work
         rdf:about="">
        <dc:format>image/svg+xml</dc:format>
        <dc:type
           rdf:resource="http://purl.org/dc/dcmitype/StillImage" />
        <dc:title></dc:title>
      </cc:Work>
    </rdf:RDF>
  </metadata>
  <g
     inkscape:label="Layer 1"
     inkscape:groupmode="layer"
     id="layer1"
     transform="translate(-182.93849,-560.72008)">
    <g
       style="display:inline"
       transform="matrix(0.66666607,0,0,0.66666668,-633.06096,6.8119427)"
       id="g5687" />
    <g
       style="display:inline"
       id="g6413"
       transform="translate(-769.06151,364.35791)">
      <rect
         style="color:#000000;display:inline;overflow:visible;visibility:visible;opacity:1;fill:none;fill-opacity:1;fill-rule:nonzero;stroke:none;stroke-width:1.5;stroke-linecap:butt;stroke-linejoin:miter;stroke-miterlimit:4;stroke-dasharray:1.5, 1.5;stroke-dashoffset:0.60000002;stroke-opacity:1;marker:none;enable-background:accumulate"
         id="rect6415"
         width="16"
         height="16"
         x="952"
         y="196.36218" />
      <rect
         style="color:#000000;display:inline;overflow:visible;visibility:visible;opacity:1;fill:#19b6ee;fill-opacity:1;fill-rule:nonzero;stroke:none;stroke-width:0.99999994;stroke-linecap:butt;stroke-linejoin:miter;stroke-miterlimit:4;stroke-dasharray:none;stroke-dashoffset:0;stroke-opacity:1;marker:none;enable-background:accumulate"
         id="rect4263"
         width="16.000256"
         height="16.000254"
         x="951.99957"
         y="196.36205"
         ry="1.066691" />
      <path
         style="font-style:normal;font-variant:normal;font-weight:500;font-stretch:normal;font-size:medium;line-height:125%;font-family:Ubuntu;-inkscape-font-specification:'Ubuntu Medium';text-align:center;letter-spacing:0px;word-spacing:0px;writing-mode:lr-tb;text-anchor:middle;display:inline;fill:#ffffff;fill-opacity:1;stroke:none;stroke-width:0.66666669"
         d="M 8.1542969 2.6757812 C 7.6570435 2.6757813 7.1687663 2.739854 6.6914062 2.8691406 C 6.2239862 2.9884873 5.8074265 3.1524881 5.4394531 3.3613281 L 5.9453125 4.7480469 C 6.2933858 4.5590935 6.6270658 4.4252698 6.9453125 4.3457031 C 7.2635592 4.2561965 7.5972325 4.2128906 7.9453125 4.2128906 C 8.3928458 4.2128906 8.7265192 4.322229 8.9453125 4.5410156 C 9.1740525 4.749869 9.2871094 5.0175165 9.2871094 5.3457031 C 9.2871094 5.5843831 9.2324469 5.8030465 9.1230469 6.0019531 C 9.0136469 6.2008531 8.8741381 6.3950244 8.7050781 6.5839844 C 8.5360048 6.7729444 8.3531969 6.9614306 8.1542969 7.1503906 C 7.9653369 7.339344 7.7862475 7.5429254 7.6171875 7.7617188 C 7.4481275 7.9805054 7.3086187 8.2199356 7.1992188 8.4785156 C 7.0898188 8.737089 7.0351562 9.0311883 7.0351562 9.359375 C 7.0351562 9.4588217 7.0408479 9.5681533 7.0507812 9.6875 C 7.0607146 9.7968933 7.0738833 9.9005467 7.09375 10 L 8.6464844 10 C 8.636551 9.94032 8.6308594 9.8799792 8.6308594 9.8203125 L 8.6308594 9.6425781 C 8.6308594 9.3442181 8.6912002 9.0746175 8.8105469 8.8359375 C 8.9398335 8.5972575 9.098156 8.3748623 9.2871094 8.1660156 C 9.4760694 7.9472156 9.6796442 7.7379558 9.8984375 7.5390625 C 10.117224 7.3302158 10.320806 7.1115592 10.509766 6.8828125 C 10.698726 6.6540725 10.853316 6.4052254 10.972656 6.1367188 C 11.101936 5.8681921 11.167969 5.5646892 11.167969 5.2265625 C 11.167969 4.9480892 11.122703 4.6596748 11.033203 4.3613281 C 10.943696 4.0629681 10.783428 3.7896356 10.554688 3.5410156 C 10.325954 3.2923823 10.018719 3.0888142 9.6308594 2.9296875 C 9.2429927 2.7606275 8.7510035 2.6757812 8.1542969 2.6757812 z M 8 11.005859 C 7.725 11.005859 7.487116 11.101302 7.2871094 11.292969 C 7.0954494 11.476302 7 11.714199 7 12.005859 C 7 12.297533 7.0954494 12.535417 7.2871094 12.71875 C 7.487116 12.902083 7.725 12.994141 8 12.994141 C 8.2833333 12.994141 8.521224 12.902083 8.7128906 12.71875 C 8.9045573 12.535417 9 12.297533 9 12.005859 C 9 11.714199 8.9045573 11.476302 8.7128906 11.292969 C 8.521224 11.101302 8.2833333 11.005859 8 11.005859 z "
         transform="translate(952,196.36217)"
         id="path4405" />
    </g>
  </g>
</svg>
