<?xml version="1.0" encoding="UTF-8" standalone="no"?>
<svg width="16px" height="16px" viewBox="0 0 16 16" version="1.1" xmlns="http://www.w3.org/2000/svg" xmlns:xlink="http://www.w3.org/1999/xlink">
    <!-- Generator: Sketch 40.3 (33839) - http://www.bohemiancoding.com/sketch -->
    <title>info</title>
    <desc>Created with Sketch.</desc>
    <defs></defs>
    <g id="Page-1" stroke="none" stroke-width="1" fill="none" fill-rule="evenodd">
        <g id="info">
            <g id="general-action-blue">
                <rect id="rect5430" x="0" y="0" width="16" height="16"></rect>
                <g id="Group" fill="#19B6EE">
                    <path d="M8,0 C3.6,0 0,3.6 0,8 C0,12.4 3.6,16 8,16 C12.4,16 16,12.4 16,8 C16,3.6 12.4,0 8,0 L8,0 Z M8,14.5 C4.4,14.5 1.5,11.6 1.5,8 C1.5,4.4 4.4,1.5 8,1.5 C11.6,1.5 14.5,4.4 14.5,8 C14.5,11.6 11.6,14.5 8,14.5 L8,14.5 Z" id="Shape"></path>
                    <rect id="Rectangle-path" x="7" y="10" width="2" height="2"></rect>
                    <rect id="Rectangle-path" x="7" y="4" width="2" height="5"></rect>
                </g>
            </g>
        </g>
    </g>
</svg>