<svg xmlns="http://www.w3.org/2000/svg" width="96" height="96" viewBox="0 0 96 96.000001"><g color="#000"><path style="marker:none" overflow="visible" fill="none" d="M96 0v96H0V0z"/><path style="line-height:normal;font-variant-ligatures:none;font-variant-position:normal;font-variant-caps:normal;font-variant-numeric:normal;font-variant-alternates:normal;font-feature-settings:normal;text-indent:0;text-align:start;text-decoration-line:none;text-decoration-style:solid;text-decoration-color:#000;text-transform:none;block-progression:tb;shape-padding:0;isolation:auto;mix-blend-mode:normal;marker:none" d="M79.197 66.033c9.916-17.191 3.984-39.246-13.223-49.19-17.207-9.944-39.253-4.057-49.17 13.134C6.89 47.168 12.82 69.222 30.027 79.166c17.207 9.944 39.255 4.058 49.17-13.133zm-3.465-2.002c-8.834 15.316-28.37 20.535-43.708 11.67-15.338-8.863-20.59-28.407-11.756-43.723 8.834-15.316 28.37-20.535 43.708-11.671 15.338 8.864 20.59 28.408 11.756 43.724z" font-weight="400" font-family="sans-serif" white-space="normal" overflow="visible" fill="gray"/><path style="marker:none" d="M54.902 5.582L41.098 7.645v7.097a34.033 33.971 43.146 0 1 13.804.028V5.582zm-28.246 6.244L16.14 20.768l5.181 6.175a34.033 33.971 43.146 0 1 10.58-8.867l-5.244-6.25zm42.631.067L64.08 18.1a34.033 33.971 43.146 0 1 .895.474 34.033 33.971 43.146 0 1 9.673 8.406l5.272-6.28-10.633-8.807zM8.398 34.008l-2.31 13.611 7.947 1.402a34.033 33.971 43.146 0 1 2.387-13.597l-8.024-1.416zm79.118.015l-7.987 1.409a34.033 33.971 43.146 0 1 2.432 13.588L90 47.604l-2.484-13.58zM15.758 58.645L8.67 62.738h-.002l6.98 11.91 7.018-4.05a34.033 33.971 43.146 0 1-6.908-11.953zm64.512.015a34.033 33.971 43.146 0 1-2.805 6.371 34.033 33.971 43.146 0 1-4.059 5.608l7.022 4.054 6.826-12-6.984-4.033zM30.148 76.867l-2.804 7.703 13.004 4.639 2.757-7.58a34.033 33.971 43.146 0 1-12.08-4.195 34.033 33.971 43.146 0 1-.877-.567zm35.733.08a34.033 33.971 43.146 0 1-12.979 4.707l2.782 7.639 12.941-4.807-2.744-7.539z" overflow="visible" fill="gray"/><path style="line-height:normal;font-variant-ligatures:none;font-variant-position:normal;font-variant-caps:normal;font-variant-numeric:normal;font-variant-alternates:normal;font-feature-settings:normal;text-indent:0;text-align:start;text-decoration-line:none;text-decoration-style:solid;text-decoration-color:#000;text-transform:none;block-progression:tb;shape-padding:0;isolation:auto;mix-blend-mode:normal;marker:none" d="M68.805 60.027c6.61-11.46 2.652-26.178-8.816-32.806-11.47-6.628-26.185-2.7-32.795 8.76-6.61 11.459-2.651 26.18 8.817 32.808 11.47 6.628 26.184 2.697 32.794-8.762zm-3.463-2.001C59.814 67.61 47.61 70.87 38.01 65.324c-9.6-5.548-12.88-17.757-7.351-27.341 5.528-9.585 17.732-12.846 27.332-7.298 9.6 5.547 12.88 17.757 7.351 27.34z" font-weight="400" font-family="sans-serif" white-space="normal" overflow="visible" fill="gray"/></g></svg>