<svg xmlns="http://www.w3.org/2000/svg" width="96" height="96" viewBox="0 0 96 96.000001"><g color="#000"><path style="marker:none" overflow="visible" fill="none" d="M96 0v96H0V0z"/><path d="M46 6l4-1v35h-4z" style="marker:none" overflow="visible" fill="gray"/><path style="line-height:normal;font-variant-ligatures:none;font-variant-position:normal;font-variant-caps:normal;font-variant-numeric:normal;font-variant-alternates:normal;font-feature-settings:normal;text-indent:0;text-align:start;text-decoration-line:none;text-decoration-style:solid;text-decoration-color:#000;text-transform:none;block-progression:tb;shape-padding:0;isolation:auto;mix-blend-mode:normal;marker:none" d="M30.006 16.798c-14.099 8.144-20.983 24.771-16.77 40.504C17.45 73.034 31.72 83.989 48 83.989s30.55-10.955 34.763-26.687c4.214-15.733-2.669-32.36-16.767-40.504l-2.002 3.463C76.54 27.509 82.65 42.263 78.9 56.266 75.15 70.27 62.488 79.99 48 79.99S20.85 70.27 17.1 56.266c-3.75-14.003 2.357-28.757 14.905-36.005l-2-3.463z" font-weight="400" font-family="sans-serif" white-space="normal" overflow="visible" fill="gray"/></g></svg>