<?xml version="1.0" encoding="UTF-8" standalone="no"?>
<!-- Created with Inkscape (http://www.inkscape.org/) -->

<svg
   xmlns:dc="http://purl.org/dc/elements/1.1/"
   xmlns:cc="http://creativecommons.org/ns#"
   xmlns:rdf="http://www.w3.org/1999/02/22-rdf-syntax-ns#"
   xmlns:svg="http://www.w3.org/2000/svg"
   xmlns="http://www.w3.org/2000/svg"
   xmlns:sodipodi="http://sodipodi.sourceforge.net/DTD/sodipodi-0.dtd"
   xmlns:inkscape="http://www.inkscape.org/namespaces/inkscape"
   width="16"
   height="15.999999"
   id="svg5918"
   version="1.1"
   inkscape:version="0.91+devel r"
   viewBox="0 0 16 15.999999"
   sodipodi:docname="tooltip_16.svg">
  <defs
     id="defs5920">
    <clipPath
       id="clipPath16"
       clipPathUnits="userSpaceOnUse">
      <path
         inkscape:connector-curvature="0"
         id="path18"
         d="m 0,595.28 841.89,0 L 841.89,0 0,0 0,595.28 Z" />
    </clipPath>
    <clipPath
       id="clipPath16-0"
       clipPathUnits="userSpaceOnUse">
      <path
         inkscape:connector-curvature="0"
         id="path18-1"
         d="m 0,595.28 841.89,0 L 841.89,0 0,0 0,595.28 Z" />
    </clipPath>
    <clipPath
       id="clipPath16-9"
       clipPathUnits="userSpaceOnUse">
      <path
         inkscape:connector-curvature="0"
         id="path18-3"
         d="m 0,595.28 841.89,0 L 841.89,0 0,0 0,595.28 Z" />
    </clipPath>
  </defs>
  <sodipodi:namedview
     id="base"
     pagecolor="#dedede"
     bordercolor="#666666"
     borderopacity="1.0"
     inkscape:pageopacity="0"
     inkscape:pageshadow="2"
     inkscape:zoom="30.357661"
     inkscape:cx="-3.3395733"
     inkscape:cy="7.2490619"
     inkscape:document-units="px"
     inkscape:current-layer="g5346"
     showgrid="true"
     fit-margin-top="0"
     fit-margin-left="0"
     fit-margin-right="0"
     fit-margin-bottom="0.2"
     inkscape:snap-bbox="true"
     inkscape:bbox-paths="true"
     inkscape:bbox-nodes="true"
     inkscape:snap-bbox-edge-midpoints="true"
     inkscape:snap-bbox-midpoints="true"
     inkscape:object-paths="true"
     inkscape:snap-intersection-paths="true"
     inkscape:object-nodes="true"
     inkscape:snap-smooth-nodes="true"
     inkscape:snap-midpoints="true"
     inkscape:snap-object-midpoints="true"
     inkscape:snap-center="true">
    <inkscape:grid
       type="xygrid"
       id="grid4137"
       originx="-0.00011296354px"
       originy="-8.999973px" />
  </sodipodi:namedview>
  <metadata
     id="metadata5923">
    <rdf:RDF>
      <cc:Work
         rdf:about="">
        <dc:format>image/svg+xml</dc:format>
        <dc:type
           rdf:resource="http://purl.org/dc/dcmitype/StillImage" />
        <dc:title />
      </cc:Work>
    </rdf:RDF>
  </metadata>
  <g
     inkscape:label="Layer 1"
     inkscape:groupmode="layer"
     id="layer1"
     transform="translate(-182.93849,-560.7201)">
    <g
       style="display:inline"
       transform="matrix(0.66666607,0,0,0.66666668,-633.06096,6.8119427)"
       id="g5687" />
    <g
       style="display:inline"
       id="g5346"
       transform="translate(-769.06151,404.35792)">
      <rect
         style="color:#000000;display:inline;overflow:visible;visibility:visible;opacity:1;fill:none;fill-opacity:1;fill-rule:nonzero;stroke:none;stroke-width:1.5;stroke-linecap:butt;stroke-linejoin:miter;stroke-miterlimit:4;stroke-dasharray:1.5, 1.5;stroke-dashoffset:0.60000002;stroke-opacity:1;marker:none;enable-background:accumulate"
         id="rect6415"
         width="16"
         height="16"
         x="952"
         y="156.36217" />
      <path
         style="color:#000000;display:inline;overflow:visible;visibility:visible;opacity:1;fill:#808080;fill-opacity:1;fill-rule:nonzero;stroke:none;stroke-width:0.99999994;stroke-linecap:butt;stroke-linejoin:miter;stroke-miterlimit:4;stroke-dasharray:none;stroke-dashoffset:0;stroke-opacity:1;marker:none;enable-background:accumulate"
         d="M 1.0664062 0 C 0.47545941 0 0 0.47545941 0 1.0664062 L 0 14.933594 C 0 15.524541 0.47545941 16 1.0664062 16 L 14.933594 16 C 15.524541 16 16 15.524541 16 14.933594 L 16 1.0664062 C 16 0.47545941 15.524541 0 14.933594 0 L 1.0664062 0 z M 1 1 L 15 1 L 15 15 L 1 15 L 1 1 z "
         transform="translate(952,156.36218)"
         id="rect4263" />
      <path
         inkscape:connector-curvature="0"
         style="font-style:normal;font-variant:normal;font-weight:500;font-stretch:normal;font-size:medium;line-height:125%;font-family:Ubuntu;-inkscape-font-specification:'Ubuntu Medium';text-align:center;letter-spacing:0px;word-spacing:0px;writing-mode:lr-tb;text-anchor:middle;display:inline;fill:#808080;fill-opacity:1;stroke:none;stroke-width:0.66666669"
         d="m 960.15429,159.03794 c -0.49725,0 -0.98553,0.0641 -1.46289,0.19336 -0.46742,0.11934 -0.88398,0.28334 -1.25195,0.49218 l 0.50586,1.38672 c 0.34807,-0.18895 0.68175,-0.32278 1,-0.40234 0.31825,-0.0895 0.65192,-0.13281 1,-0.13281 0.44753,0 0.78121,0.10933 1,0.32812 0.22874,0.20885 0.3418,0.4765 0.3418,0.80469 0,0.23868 -0.0547,0.45734 -0.16407,0.65625 -0.1094,0.1989 -0.2489,0.39307 -0.41796,0.58203 -0.16908,0.18896 -0.35189,0.37745 -0.55079,0.56641 -0.18896,0.18895 -0.36805,0.39253 -0.53711,0.61132 -0.16906,0.21879 -0.30856,0.45822 -0.41796,0.7168 -0.1094,0.25857 -0.16407,0.55267 -0.16407,0.88086 0,0.0995 0.006,0.20878 0.0156,0.32812 0.01,0.1094 0.0231,0.21305 0.043,0.31251 h 1.55273 c -0.01,-0.0597 -0.0156,-0.12003 -0.0156,-0.17969 v -0.17774 c 0,-0.29836 0.0603,-0.56796 0.17968,-0.80664 0.12929,-0.23868 0.28761,-0.46107 0.47657,-0.66992 0.18896,-0.2188 0.39253,-0.42806 0.61132,-0.62695 0.21879,-0.20885 0.42237,-0.42751 0.61133,-0.65625 0.18896,-0.22874 0.34355,-0.47759 0.46289,-0.7461 0.12928,-0.26852 0.19532,-0.57203 0.19532,-0.91015 0,-0.27848 -0.0453,-0.56689 -0.13477,-0.86524 -0.0895,-0.29836 -0.24977,-0.57169 -0.47852,-0.82031 -0.22873,-0.24863 -0.53596,-0.4522 -0.92382,-0.61133 -0.38787,-0.16906 -0.87986,-0.2539 -1.47657,-0.2539 z M 960,167.36801 c -0.275,0 -0.51289,0.0954 -0.71289,0.28711 -0.19166,0.18334 -0.28711,0.42123 -0.28711,0.71289 0,0.29168 0.0954,0.52956 0.28711,0.7129 0.2,0.18333 0.43789,0.27539 0.71289,0.27539 0.28333,0 0.52122,-0.0921 0.71289,-0.27539 0.19166,-0.18334 0.28711,-0.42122 0.28711,-0.7129 0,-0.29166 -0.0955,-0.52955 -0.28711,-0.71289 -0.19167,-0.19166 -0.42956,-0.28711 -0.71289,-0.28711 z"
         id="path4405" />
    </g>
  </g>
</svg>
