<svg xmlns="http://www.w3.org/2000/svg" width="16" height="16" viewBox="0 0 16.000017 16.000017"><g color="#000"><path style="marker:none" overflow="visible" fill="none" d="M0 0h16v16H0z"/><path style="line-height:normal;font-variant-ligatures:normal;font-variant-position:normal;font-variant-caps:normal;font-variant-numeric:normal;font-variant-alternates:normal;font-feature-settings:normal;text-indent:0;text-align:start;text-decoration-line:none;text-decoration-style:solid;text-decoration-color:#000;text-transform:none;text-orientation:mixed;shape-padding:0;isolation:auto;mix-blend-mode:normal;marker:none" d="M8.045-.023a.967 1.034 0 0 0-.098.002.967 1.034 0 0 0-.785.513L.154 13.471a.967 1.034 0 0 0 .836 1.552h14.02a.967 1.034 0 0 0 .836-1.552L8.838.492a.967 1.034 0 0 0-.793-.515zM7 5h2v5H7V5zm0 6h2v2H7v-2z" font-weight="400" font-family="sans-serif" white-space="normal" overflow="visible" fill="#fff"/></g></svg>