<?xml version="1.0" encoding="UTF-8" standalone="no"?>
<svg width="10px" height="4px" viewBox="0 0 10 4" version="1.1" xmlns="http://www.w3.org/2000/svg" xmlns:xlink="http://www.w3.org/1999/xlink" xmlns:sketch="http://www.bohemiancoding.com/sketch/ns">
    <!-- Generator: Sketch 3.2.2 (9983) - http://www.bohemiancoding.com/sketch -->
    <title>chevron 2</title>
    <desc>Created with Sketch.</desc>
    <defs></defs>
    <g id="Page-1" stroke="none" stroke-width="1" fill="none" fill-rule="evenodd" sketch:type="MSPage">
        <path d="M6.361,0.80625 C6.879,1.1475 7.413,1.53375 7.962,1.96375 C8.511,2.3925 9.051,2.85375 9.583,3.345 C9.725,3.47625 9.864,3.60875 9.998,3.74 L8.457,3.74 C8.153,3.47 7.837,3.20625 7.51,2.94875 C7.37213415,2.84019422 7.23322081,2.73392984 7.09316521,2.63007531 C6.92964225,2.50881918 6.76456217,2.39084814 6.59777416,2.27635072 C6.51263451,2.21790365 6.42704981,2.16036172 6.341,2.10375 C5.944,1.84 5.406,1.51875 5.026,1.31125 L4.972,1.31125 C4.592,1.51875 4.054,1.84 3.657,2.10375 C3.259,2.36625 2.869,2.64875 2.488,2.94875 C2.161,3.20625 1.845,3.47 1.541,3.74 L0,3.74 C0.135,3.60875 0.273,3.47625 0.415,3.345 C0.947,2.85375 1.487,2.3925 2.036,1.96375 C2.586,1.53375 3.119,1.1475 3.637,0.80625 C4.156,0.465 4.61,0.19625 4.999,3.55271368e-15 C5.389,0.19625 5.843,0.465 6.361,0.80625 Z" id="chevron-2" fill="#FFFFFF" sketch:type="MSShapeGroup" transform="translate(4.999000, 1.870000) rotate(-180.000000) translate(-4.999000, -1.870000) "></path>
    </g>
</svg>