<svg xmlns="http://www.w3.org/2000/svg" width="90" height="90"><path color="#000" fill="none" stroke-width="7.5" overflow="visible" enable-background="accumulate" d="M0 0h90v90H0z"/><path d="M33 13.012C8.994 13.042 6 13.747 6 31v36c0 18 3 18 30 18h12c27 0 30 0 30-18v-9h-9v6c0 12 0 12-24 12h-6c-24 0-24 0-24-12V34c0-10.864.192-11.885 18-11.982v-9.006z" fill="#dd4814"/><path color="#000" fill="none" stroke-width="6" overflow="visible" enable-background="accumulate" d="M0 0h90v90H0z"/><path d="M113.915 179.144c-.524.303-8.746-4.444-8.746-5.05 0-.605 8.22-5.352 8.744-5.05.525.304.525 9.797 0 10.1z" transform="matrix(-2.993 2.993 -3.111 -3.111 940.172 234.009)" xml:space="default" color="#000" fill="#dd4814" stroke-width="3" overflow="visible" enable-background="accumulate"/><path style="text-indent:0;text-align:start;line-height:normal;text-transform:none;block-progression:tb;-inkscape-font-specification:Sans" d="M56.426 24.633l-24.34 24.34 9.94 9.94 24.34-24.34z" xml:space="default" color="#000" fill="#dd4814" stroke-width="9" overflow="visible" enable-background="accumulate" font-family="Sans"/></svg>