<?xml version="1.0" encoding="utf-8"?>
<!-- Generator: Adobe Illustrator 16.0.4, SVG Export Plug-In . SVG Version: 6.00 Build 0)  -->
<!DOCTYPE svg PUBLIC "-//W3C//DTD SVG 1.1//EN" "http://www.w3.org/Graphics/SVG/1.1/DTD/svg11.dtd">
<svg version="1.1"
	 id="svg3140" sodipodi:docname="external-link-orange.svg" inkscape:version="0.48+devel r12585" xmlns:dc="http://purl.org/dc/elements/1.1/" xmlns:cc="http://creativecommons.org/ns#" xmlns:rdf="http://www.w3.org/1999/02/22-rdf-syntax-ns#" xmlns:svg="http://www.w3.org/2000/svg" xmlns:sodipodi="http://sodipodi.sourceforge.net/DTD/sodipodi-0.dtd" xmlns:inkscape="http://www.inkscape.org/namespaces/inkscape"
	 xmlns="http://www.w3.org/2000/svg" xmlns:xlink="http://www.w3.org/1999/xlink" x="0px" y="0px" width="90px" height="90px"
	 viewBox="0 0 90 90" enable-background="new 0 0 90 90" xml:space="preserve">
<sodipodi:namedview  inkscape:snap-center="true" inkscape:snap-object-midpoints="true" inkscape:object-paths="true" inkscape:snap-midpoints="true" inkscape:snap-smooth-nodes="true" inkscape:object-nodes="true" inkscape:snap-bbox-midpoints="true" inkscape:bbox-nodes="true" inkscape:bbox-paths="true" inkscape:snap-bbox="true" inkscape:snap-global="true" fit-margin-bottom="0" fit-margin-right="0" inkscape:window-maximized="1" inkscape:window-y="24" inkscape:current-layer="g4978" inkscape:window-x="0" inkscape:pageshadow="2" inkscape:document-units="px" inkscape:pageopacity="0.0" inkscape:window-height="1029" inkscape:window-width="1920" showguides="false" fit-margin-left="0" fit-margin-top="0" showgrid="true" inkscape:cy="41.108902" inkscape:cx="40.342015" inkscape:zoom="2.6077032" borderopacity="1.0" bordercolor="#666666" pagecolor="#ffffff" id="base" inkscape:snap-intersection-paths="true" inkscape:snap-bbox-edge-midpoints="true">
	
		<inkscape:grid  snapvisiblegridlinesonly="true" type="xygrid" originy="-1.7382813e-05px" originx="0px" enabled="true" visible="true" empspacing="6" id="grid3178">
		</inkscape:grid>
</sodipodi:namedview>
<g id="layer1" transform="translate(0,-962.36218)" inkscape:label="Layer 1" inkscape:groupmode="layer">
	<rect id="rect4198" y="962.362" fill="none" width="90" height="90"/>
	<g id="g4978" transform="translate(-60,548.00002)">
		<path id="path3759" fill="#333333" d="M93,427.374c-24.006,0.03-27,0.735-27,17.988v36c0,18,3,18,30,18h12c27,0,30,0,30-18v-9h-9
			v6c0,12,0,12-24,12h-6c-24,0-24,0-24-12v-30c0-10.864,0.191-11.885,18-11.982V427.374z"/>
		<rect id="rect3045" x="60" y="414.362" fill="none" width="90" height="90"/>
		
			<path id="path4984-3" sodipodi:arg2="2.0943951" sodipodi:arg1="1.0471976" sodipodi:r2="2.9154758" sodipodi:r1="5.8309517" sodipodi:cy="174.09448" sodipodi:cx="111" sodipodi:sides="3" sodipodi:type="star" inkscape:transform-center-x="5.2240132" inkscape:transform-center-y="5.2240217" inkscape:randomized="0" inkscape:rounded="0.06" inkscape:flatsided="true" fill="#333333" d="
			M101.871,432.073c0.628-2.513,40.006-12.358,41.891-10.473s-7.959,41.263-10.473,41.891
			C130.775,464.12,101.242,434.587,101.871,432.073L101.871,432.073z"/>
		<path id="path3789" sodipodi:nodetypes="ccccc" inkscape:connector-curvature="0" fill="#333333" d="M116.426,438.995
			l-24.339,24.34l9.941,9.941l24.34-24.34L116.426,438.995z"/>
	</g>
</g>
</svg>
