<?xml version="1.0" encoding="UTF-8" standalone="no"?>
<svg width="21px" height="20px" viewBox="0 0 21 20" version="1.1" xmlns="http://www.w3.org/2000/svg" xmlns:xlink="http://www.w3.org/1999/xlink" xmlns:sketch="http://www.bohemiancoding.com/sketch/ns">
    <!-- Generator: Sketch 3.2.2 (9983) - http://www.bohemiancoding.com/sketch -->
    <title>Untitled 2</title>
    <desc>Created with Sketch.</desc>
    <defs></defs>
    <g id="Page-1" stroke="none" stroke-width="1" fill="none" fill-rule="evenodd" sketch:type="MSPage">
        <path d="M13.5927145,14.1048665 L14.5147971,14.9976765 L14.5147971,14.9976765 C14.4033245,15.4402932 14.5418631,15.9399308 14.8797049,16.2596667 L18.0448525,19.3263333 C18.9685082,20.2763333 19.1678361,20.1476667 19.9875246,19.354 C20.8079016,18.5606667 20.9411311,18.4233333 19.9592951,17.472 L16.7941475,14.4053333 C16.541459,14.1543333 16.1813607,14.008 15.8198852,14.0093333 L15.8188525,14.0096667 C15.7076313,14.0103614 15.5972327,14.0255811 15.4903346,14.0535779 L14.5668061,13.1593678 C15.7825818,11.7655176 16.5163279,9.96486242 16.5163279,8.00133333 C16.5163279,3.58966667 12.8117213,0 8.25816393,0 C3.70460656,0 0,3.58966667 0,8.00133333 C0,12.4133333 3.70460656,16.003 8.25816393,16.003 C10.2899178,16.003 12.1526576,15.2883479 13.5927145,14.1048665 L13.5927145,14.1048665 Z M8.25816393,2 C4.84342623,2 2.06557377,4.69233333 2.06557377,8.00133333 C2.06557377,11.3106667 4.84342623,14.003 8.25816393,14.003 C11.6729016,14.003 14.4507541,11.3106667 14.4507541,8.00133333 C14.4507541,4.69233333 11.6729016,2 8.25816393,2 Z" id="search-icon" fill="#D2D2D2" sketch:type="MSShapeGroup"></path>
    </g>
</svg>