<svg xmlns="http://www.w3.org/2000/svg" xmlns:xlink="http://www.w3.org/1999/xlink" version="1" width="90" height="90" viewBox="0 0 90 90"><defs><linearGradient id="a"><stop offset="0" stop-color="#e7e5e5"/><stop offset="1" stop-color="#e2dfdf"/></linearGradient><linearGradient xlink:href="#a" x1="53.012" y1="-102.79" x2="53.012" y2="-66.661" gradientUnits="userSpaceOnUse"/><linearGradient xlink:href="#a" gradientUnits="userSpaceOnUse" x1="53.012" y1="-102.79" x2="53.012" y2="-66.661" gradientTransform="translate(-625)"/></defs><g color="#000"><path transform="matrix(.999 0 0 -1 -106.93 -413.362)" opacity=".05" fill="none" stroke-width="2" overflow="visible" enable-background="accumulate" d="M107-503.362h90.06v90H107z"/><path d="M69 36.5a33 33.5 0 1 1-66 0 33 33.5 0 1 1 66 0z" transform="matrix(.862 0 0 .852 13.899 13.916)" fill="none" stroke="#fff" stroke-width="10.5" overflow="visible" enable-background="accumulate"/><path style="text-indent:0;text-align:start;line-height:normal;text-transform:none;block-progression:tb;-inkscape-font-specification:Sans" d="M175.17 477.237l-4.253 4.25 12.008 12 4.253-4.25z" font-size="xx-small" fill="#fff" stroke-width="6" overflow="visible" enable-background="accumulate" font-family="Sans" transform="matrix(.999 0 0 1 -106.93 -413.362)"/><path style="text-indent:0;text-align:start;line-height:normal;text-transform:none;block-progression:tb;-inkscape-font-specification:Sans" d="M180.972 481.406c-2.324.012-4.57 1.535-5.442 3.69-.87 2.155-.315 4.81 1.348 6.435l8.797 8.8c4.027 4.276 4.895 3.7 8.47.128 3.573-3.57 4.157-4.19-.127-8.47l-8.796-8.8c-1.102-1.13-2.672-1.787-4.25-1.78z" font-size="xx-small" fill="#fff" stroke-width="11.804" overflow="visible" enable-background="accumulate" font-family="Sans" transform="matrix(.999 0 0 1 -106.93 -413.362)"/></g></svg>