<?xml version="1.0" encoding="UTF-8" standalone="no"?>
<svg xmlns="http://www.w3.org/2000/svg" height="15px" width="14px" version="1.1" xmlns:xlink="http://www.w3.org/1999/xlink" viewBox="0 0 14 15"><!-- Generator: Sketch 42 (36781) - http://www.bohemiancoding.com/sketch -->
 <title>icon--power-off</title>
 <desc>Created with Sketch.</desc>
 <g id="Mothership" fill-rule="evenodd" fill="none">
  <g id="Icons" fill="#666" transform="translate(-2355 -1079)">
   <g transform="translate(1740 920)">
    <g id="Group-3" transform="translate(0 80)">
     <g id="icon--power-off" transform="translate(615 79)">
      <g id="power-icons">
       <g id="power-off">
        <path id="Fill-2" d="m11.04 2.3234l-0.324 2.2676c0.873 0.9414 1.352 2.1528 1.352 3.4262 0 2.7868-2.2742 5.0558-5.068 5.0558s-5.067-2.269-5.067-5.0558c0-1.2734 0.4791-2.4848 1.3513-3.4262l-0.3246-2.2676c-1.8604 1.3118-2.9597 3.4118-2.9597 5.6938 0 3.8508 3.1401 6.9828 7 6.9828 3.86 0 7-3.132 7-6.9828 0-2.2831-1.099-4.382-2.96-5.6938zm-5.04-2.3234h2v7h-2v-7z"/>
       </g>
      </g>
     </g>
    </g>
   </g>
  </g>
 </g>
</svg>
