<?xml version="1.0" encoding="UTF-8" standalone="no"?>
<svg xmlns="http://www.w3.org/2000/svg" height="16px" width="16px" version="1.1" xmlns:xlink="http://www.w3.org/1999/xlink" viewBox="0 0 16 16"><!-- Generator: Sketch 46.2 (44496) - http://www.bohemiancoding.com/sketch -->
 <title>QUESTION</title>
 <desc>Created with Sketch.</desc>
 <g id="Page-1" fill-rule="evenodd" fill="none">
  <g id="Icon-set" fill-rule="nonzero" transform="translate(-548 -396)">
   <g id="ROW-3" transform="translate(50 350)">
    <g id="QUESTION" transform="translate(498 45)">
     <path id="path3229" fill="#335280" d="m8 0.99944c-4.4109 0-8 3.5892-8 8-0.00000184 4.4106 3.5891 7.9996 8 7.9996 4.411 0 8-3.589 8-7.9996 0-4.4108-3.589-8-8-8z"/>
     <path id="path4405" fill="#fff" d="m8.0074 6.2232c-0.2873 0-0.5623 0.0369-0.8249 0.1108-0.2626 0.0656-0.5376 0.1764-0.8249 0.3324l-0.4186-1.145c0.3037-0.1724 0.6485-0.3078 1.0342-0.4063 0.394-0.1067 0.7962-0.16 1.2065-0.16 0.4925 0 0.8988 0.0697 1.2189 0.2093 0.3201 0.1313 0.5745 0.2996 0.7634 0.5047 0.189 0.2052 0.32 0.4309 0.394 0.6772 0.074 0.2462 0.111 0.4842 0.111 0.714 0 0.2791-0.054 0.5294-0.16 0.751-0.099 0.2216-0.226 0.4268-0.382 0.6156s-0.3243 0.3694-0.5048 0.5417c-0.1806 0.1642-0.3488 0.3365-0.5048 0.5171-0.1559 0.1724-0.2873 0.357-0.394 0.5543-0.0984 0.197-0.1477 0.418-0.1477 0.665v0.147c0 0.05 0.0041 0.099 0.0123 0.148h-1.2804c-0.0164-0.082-0.0287-0.168-0.0369-0.259-0.0082-0.098-0.0123-0.188-0.0123-0.27 0-0.271 0.0451-0.5134 0.1354-0.7268s0.2052-0.4103 0.3447-0.5909c0.1396-0.1806 0.2873-0.3488 0.4432-0.5048 0.1642-0.1559 0.316-0.3119 0.4556-0.4678 0.1395-0.156 0.2544-0.316 0.3447-0.4802 0.0903-0.1641 0.1354-0.3447 0.1354-0.5417 0-0.2708-0.0944-0.4924-0.2832-0.6648-0.1805-0.1806-0.4555-0.2708-0.8248-0.2708z"/>
     <path id="path4407" fill="#fff" d="m8.9849 13.006c0 0.287-0.0944 0.521-0.2831 0.702-0.1888 0.18-0.4227 0.271-0.7018 0.271-0.2709 0-0.5048-0.091-0.7018-0.271-0.1887-0.181-0.2831-0.415-0.2831-0.702s0.0944-0.521 0.2831-0.702c0.197-0.188 0.4309-0.283 0.7018-0.283 0.2791 0 0.513 0.095 0.7018 0.283 0.1887 0.181 0.2831 0.415 0.2831 0.702z"/>
    </g>
   </g>
  </g>
 </g>
</svg>
