<svg width="22" height="22" viewBox="0 0 22 22" xmlns="http://www.w3.org/2000/svg"><title>help</title><g fill="none" fill-rule="evenodd"><path d="M0 0h22v22H0z"/><path d="M11.011 5.902c-.43 0-.843.056-1.237.166a5.314 5.314 0 0 0-1.238.499L7.91 4.849a6.271 6.271 0 0 1 1.55-.609A6.893 6.893 0 0 1 11.27 4c.74 0 1.349.105 1.829.314.48.197.862.45 1.145.757.283.308.48.646.59 1.016.112.37.167.726.167 1.07 0 .42-.08.795-.24 1.127-.148.333-.339.64-.573.924a9.395 9.395 0 0 1-.757.812c-.27.247-.523.505-.757.776-.234.258-.43.536-.59.831a2.199 2.199 0 0 0-.222.997v.222c0 .074.006.148.018.221H9.96a3.685 3.685 0 0 1-.056-.387 4.914 4.914 0 0 1-.018-.407c0-.406.067-.77.203-1.09.135-.32.307-.615.517-.886a7.9 7.9 0 0 1 .665-.757c.246-.234.474-.468.683-.702a3.91 3.91 0 0 0 .517-.72c.135-.246.203-.517.203-.812 0-.407-.141-.739-.425-.998-.27-.27-.683-.406-1.237-.406zM12.477 16.01c0 .43-.141.781-.424 1.052-.284.27-.634.406-1.053.406-.406 0-.757-.135-1.053-.406-.283-.271-.424-.622-.424-1.053 0-.43.141-.782.424-1.052A1.47 1.47 0 0 1 11 14.532c.419 0 .77.141 1.053.425.283.27.424.621.424 1.052z" fill="gray"/><circle stroke="gray" stroke-width="1.5" cx="11" cy="11" r="10.25"/></g></svg>