<?xml version="1.0" encoding="UTF-8" standalone="no"?>
<svg xmlns="http://www.w3.org/2000/svg" height="15px" width="15px" version="1.1" xmlns:xlink="http://www.w3.org/1999/xlink" viewBox="0 0 15 15"><!-- Generator: Sketch 46.2 (44496) - http://www.bohemiancoding.com/sketch -->
 <title>HELP</title>
 <desc>Created with Sketch.</desc>
 <g id="Page-1" fill-rule="evenodd" fill="none">
  <g id="Icon-set" fill-rule="nonzero" fill="#666" transform="translate(-714 -395)">
   <g id="ROW-3" transform="translate(50 350)">
    <g id="HELP" transform="translate(664 45)">
     <path id="path4405" d="m7.0074 4.2232c-0.2873 0-0.5623 0.0369-0.8249 0.1108-0.2626 0.0656-0.5376 0.1764-0.8249 0.3324l-0.4186-1.145c0.3037-0.1724 0.6485-0.3078 1.0342-0.4063 0.394-0.1067 0.7962-0.16 1.2065-0.16 0.4925 0 0.8988 0.0697 1.2189 0.2093 0.3201 0.1313 0.5745 0.2996 0.7633 0.5047 0.1888 0.2052 0.3201 0.4309 0.394 0.6772 0.0738 0.2462 0.1108 0.4842 0.1108 0.714 0 0.2791-0.0534 0.5294-0.1601 0.751-0.0985 0.2216-0.2257 0.4268-0.3816 0.6156-0.156 0.1888-0.3243 0.3694-0.5048 0.5417-0.1806 0.1642-0.3488 0.3365-0.5048 0.5171-0.1559 0.1724-0.2873 0.357-0.394 0.554-0.0984 0.197-0.1477 0.4186-0.1477 0.6648v0.1478c0 0.0492 0.0041 0.0985 0.0123 0.1477h-1.2804c-0.0164-0.0821-0.0287-0.1682-0.0369-0.2585-0.0082-0.0985-0.0123-0.1888-0.0123-0.2709 0-0.2708 0.0451-0.513 0.1354-0.7264s0.2052-0.4103 0.3447-0.5909c0.1396-0.1806 0.2873-0.3488 0.4432-0.5048 0.1642-0.1559 0.316-0.3119 0.4556-0.4678 0.1395-0.156 0.2544-0.316 0.3447-0.4802 0.0903-0.1641 0.1354-0.3447 0.1354-0.5417 0-0.2708-0.0944-0.4924-0.2832-0.6648-0.1805-0.1806-0.4555-0.2708-0.8248-0.2708z"/>
     <path id="path4407" d="m7.9849 11.006c0 0.287-0.0944 0.521-0.2831 0.702-0.1888 0.18-0.4227 0.271-0.7018 0.271-0.2709 0-0.5048-0.091-0.7018-0.271-0.1887-0.181-0.2831-0.415-0.2831-0.702s0.0944-0.521 0.2831-0.702c0.197-0.188 0.4309-0.283 0.7018-0.283 0.2791 0 0.513 0.095 0.7018 0.283 0.1887 0.181 0.2831 0.415 0.2831 0.702z"/>
     <path id="rect4263" d="m1.1426 0.0000027982c-0.63318 0-1.1426 0.50942-1.1426 1.1426l-0.00000182 12.714c0 0.634 0.50942 1.143 1.1426 1.143h12.714c0.634 0 1.143-0.509 1.143-1.143v-12.714c0-0.63358-0.509-1.143-1.143-1.143l-12.714 0.0000027982zm-0.0712 1.0714h12.858v12.858h-12.858l0.0004-12.858z"/>
    </g>
   </g>
  </g>
 </g>
</svg>
