<svg xmlns="http://www.w3.org/2000/svg" width="16" height="16" viewBox="0 0 16 15.999999"><path style="marker:none" color="#000" overflow="visible" fill="none" d="M0 0h16v16H0z"/><path style="marker:none" d="M1.066 0C.476 0 0 .475 0 1.066v13.868C0 15.524.475 16 1.066 16h13.868c.59 0 1.066-.475 1.066-1.066V1.066C16 .476 15.525 0 14.934 0H1.066zM1 1h14v14H1V1z" color="#000" overflow="visible" fill="gray"/><path style="line-height:125%;-inkscape-font-specification:'Ubuntu Medium';text-align:center" d="M8.154 2.676c-.497 0-.985.064-1.463.193-.467.12-.884.283-1.252.492l.506 1.387a4.294 4.294 0 0 1 1-.402c.319-.09.652-.133 1-.133.448 0 .782.11 1 .328.229.209.342.476.342.805 0 .238-.055.457-.164.656-.11.199-.249.393-.418.582-.169.189-.352.377-.55.566a6.377 6.377 0 0 0-.538.612 3.22 3.22 0 0 0-.418.716c-.11.26-.164.553-.164.881 0 .1.006.21.016.328.01.11.023.214.043.313h1.552a1.09 1.09 0 0 1-.015-.18v-.177c0-.299.06-.568.18-.807a3.43 3.43 0 0 1 .476-.67c.19-.219.393-.428.611-.627.22-.209.423-.427.612-.656.189-.229.343-.478.463-.746.129-.269.195-.572.195-.91 0-.279-.045-.567-.135-.866a2.095 2.095 0 0 0-.478-.82c-.229-.249-.536-.452-.924-.611-.388-.17-.88-.254-1.477-.254zM8 11.006a.995.995 0 0 0-.713.287.942.942 0 0 0-.287.713c0 .292.095.53.287.713.2.183.438.275.713.275a.992.992 0 0 0 .713-.275.942.942 0 0 0 .287-.713.943.943 0 0 0-.287-.713.968.968 0 0 0-.713-.287z" font-weight="500" font-family="Ubuntu" letter-spacing="0" word-spacing="0" text-anchor="middle" fill="gray"/></svg>