<svg xmlns="http://www.w3.org/2000/svg" width="16" height="16" viewBox="0 0 16 15.999999"><path opacity=".212" fill="none" d="M0 0h16v16H0z"/><path style="marker:none" d="M8.691 0L.775 7.918c-1.218 1.218-.913 1.522.305 2.74l2.13 2.131 2.132 2.13c1.218 1.219 1.522 1.524 2.74.306L16 7.309V.914c0-.304-.076-.533-.228-.686C15.619.076 15.39 0 15.086 0zm.418 1.008h5.883V6.89l-7.525 7.523c-.795.839-1.472-.388-2.074-.87a46.125 46.125 0 0 0-1.47-1.468 45.917 45.917 0 0 0-1.468-1.469c-.481-.602-1.708-1.28-.87-2.074L9.11 1.008z" color="#000" overflow="visible" fill="gray"/><path style="marker:none" d="M12.518 2.25a1.25 1.25 0 0 1 .867.365 1.25 1.25 0 0 1 0 1.77 1.25 1.25 0 0 1-1.77 0 1.25 1.25 0 0 1 0-1.77 1.25 1.25 0 0 1 .903-.365z" color="#000" overflow="visible" fill="gray"/></svg>