<?xml version="1.0" encoding="UTF-8" standalone="no"?>
<svg xmlns:sketch="http://www.bohemiancoding.com/sketch/ns" xmlns="http://www.w3.org/2000/svg" height="4px" width="10px" version="1.1" xmlns:xlink="http://www.w3.org/1999/xlink" viewBox="0 0 10 4"><!-- Generator: Sketch 3.2.2 (9983) - http://www.bohemiancoding.com/sketch -->
 <title>accordion-close</title>
 <desc>Created with Sketch.</desc>
 <g id="filter-panel" fill-rule="evenodd" sketch:type="MSPage" fill="none">
  <g id="accordion-close" fill="#888" sketch:type="MSArtboardGroup">
   <path id="chevron" sketch:type="MSShapeGroup" d="m6.361 0.8623c0.518 0.365 1.052 0.7781 1.601 1.238 0.549 0.4585 1.089 0.9518 1.621 1.4772 0.142 0.1404 0.281 0.2821 0.415 0.4225h-1.541c-0.304-0.2888-0.62-0.5709-0.947-0.8463-0.1379-0.1161-0.2768-0.2297-0.4168-0.3408-0.1636-0.1297-0.3286-0.2558-0.4954-0.3783-0.0852-0.0625-0.1708-0.1241-0.2568-0.1846-0.397-0.2821-0.935-0.6257-1.315-0.8476h-0.054c-0.38 0.2219-0.918 0.5655-1.315 0.8476-0.398 0.2807-0.788 0.5829-1.169 0.9037-0.327 0.2754-0.643 0.5575-0.947 0.8463h-1.541c0.135-0.1404 0.273-0.2821 0.415-0.4225 0.532-0.5254 1.072-1.0187 1.621-1.4772 0.55-0.4599 1.083-0.873 1.601-1.238 0.519-0.36497 0.973-0.65241 1.362-0.8623 0.39 0.20989 0.844 0.49733 1.362 0.8623z"/>
  </g>
 </g>
</svg>
