<svg xmlns="http://www.w3.org/2000/svg" width="96" height="96" viewBox="0 0 96 96.000001"><g color="#000"><path style="marker:none" overflow="visible" fill="none" d="M96 0v96H0V0z"/><path d="M84.93 14.958L67.965 31.934a177.473 177.473 0 0 0 11.842 3.925A211.649 211.649 0 0 0 92 39c-.936-3.985-1.999-8.035-3.187-12.147a206.82 206.82 0 0 0-3.882-11.894zM11.035 81L28 64.024A177.472 177.472 0 0 0 16.158 60.1a211.647 211.647 0 0 0-12.193-3.141c.936 3.985 1.999 8.035 3.187 12.147 1.217 4.136 2.511 8.1 3.882 11.894z" style="marker:none" overflow="visible" fill="gray"/><path style="line-height:normal;font-variant-ligatures:normal;font-variant-position:normal;font-variant-caps:normal;font-variant-numeric:normal;font-variant-alternates:normal;font-feature-settings:normal;text-indent:0;text-align:start;text-decoration-line:none;text-decoration-style:solid;text-decoration-color:#000;text-transform:none;text-orientation:mixed;shape-padding:0;isolation:auto;mix-blend-mode:normal;marker:none" d="M48 8C25.932 8 8 25.932 8 48c0 .652.02 1.3.05 1.945 1.356.336 2.717.686 4.083 1.053A36.54 36.54 0 0 1 12 48c0-19.906 16.094-36 36-36 13.005 0 24.38 6.872 30.705 17.186l2.86-2.862C74.444 15.31 62.076 8 48 8zm35.863 36.969c.084 1 .137 2.009.137 3.031 0 19.906-16.094 36-36 36-13.025 0-24.416-6.892-30.736-17.232l-2.88 2.88C21.512 80.682 33.908 88 48 88c22.068 0 40-17.932 40-40a2 2 0 0 0-.041-.406 40.381 40.381 0 0 0-.057-1.584 211.753 211.753 0 0 1-4.039-1.041z" font-weight="400" font-family="sans-serif" white-space="normal" overflow="visible" fill="gray"/></g></svg>