<?xml version="1.0" encoding="UTF-8" standalone="no"?>
<svg width="10px" height="4px" viewBox="0 0 10 4" version="1.1" xmlns="http://www.w3.org/2000/svg" xmlns:xlink="http://www.w3.org/1999/xlink" xmlns:sketch="http://www.bohemiancoding.com/sketch/ns">
    <!-- Generator: Sketch 3.2.2 (9983) - http://www.bohemiancoding.com/sketch -->
    <title>accordion-close</title>
    <desc>Created with Sketch.</desc>
    <defs></defs>
    <g id="filter-panel" stroke="none" stroke-width="1" fill="none" fill-rule="evenodd" sketch:type="MSPage">
        <g id="accordion-close" sketch:type="MSArtboardGroup" fill="#888888">
            <path d="M6.361,0.862299465 C6.879,1.22727273 7.413,1.64037433 7.962,2.10026738 C8.511,2.55882353 9.051,3.05213904 9.583,3.57754011 C9.725,3.71791444 9.864,3.85962567 9.998,4 L8.457,4 C8.153,3.71122995 7.837,3.42914439 7.51,3.15374332 C7.37213415,3.03764087 7.23322081,2.92398913 7.09316521,2.81291477 C6.92964225,2.68322907 6.76456217,2.55705684 6.59777416,2.4345997 C6.51263451,2.37208946 6.42704981,2.31054729 6.341,2.25 C5.944,1.96791444 5.406,1.62433155 5.026,1.40240642 L4.972,1.40240642 C4.592,1.62433155 4.054,1.96791444 3.657,2.25 C3.259,2.53074866 2.869,2.8328877 2.488,3.15374332 C2.161,3.42914439 1.845,3.71122995 1.541,4 L0,4 C0.135,3.85962567 0.273,3.71791444 0.415,3.57754011 C0.947,3.05213904 1.487,2.55882353 2.036,2.10026738 C2.586,1.64037433 3.119,1.22727273 3.637,0.862299465 C4.156,0.497326203 4.61,0.209893048 4.999,3.99680289e-15 C5.389,0.209893048 5.843,0.497326203 6.361,0.862299465 Z" id="chevron" sketch:type="MSShapeGroup"></path>
        </g>
    </g>
</svg>