<?xml version="1.0" encoding="utf-8"?>
<!-- Generator: Adobe Illustrator 18.0.0, SVG Export Plug-In . SVG Version: 6.00 Build 0)  -->
<!DOCTYPE svg PUBLIC "-//W3C//DTD SVG 1.1//EN" "http://www.w3.org/Graphics/SVG/1.1/DTD/svg11.dtd">
<svg version="1.1"
	 id="svg5918" inkscape:version="0.91pre2 r" sodipodi:docname="chevron_16.svg" xmlns:cc="http://creativecommons.org/ns#" xmlns:dc="http://purl.org/dc/elements/1.1/" xmlns:rdf="http://www.w3.org/1999/02/22-rdf-syntax-ns#" xmlns:svg="http://www.w3.org/2000/svg" xmlns:inkscape="http://www.inkscape.org/namespaces/inkscape" xmlns:sodipodi="http://sodipodi.sourceforge.net/DTD/sodipodi-0.dtd"
	 xmlns="http://www.w3.org/2000/svg" xmlns:xlink="http://www.w3.org/1999/xlink" x="0px" y="0px" width="16px" height="16px"
	 viewBox="0 0 16 16" enable-background="new 0 0 16 16" xml:space="preserve">
<sodipodi:namedview  inkscape:snap-intersection-paths="true" inkscape:snap-bbox-edge-midpoints="true" inkscape:object-nodes="true" inkscape:snap-midpoints="true" inkscape:snap-object-midpoints="true" inkscape:snap-center="true" inkscape:snap-smooth-nodes="true" fit-margin-bottom="0.2" inkscape:object-paths="true" inkscape:snap-bbox-midpoints="true" inkscape:bbox-nodes="true" inkscape:snap-bbox="true" inkscape:bbox-paths="true" fit-margin-right="0" inkscape:current-layer="g5346" inkscape:pageopacity="0" inkscape:pageshadow="2" inkscape:document-units="px" bordercolor="#666666" pagecolor="#dedede" inkscape:zoom="30.357661" inkscape:cx="6.114383" fit-margin-left="0" inkscape:cy="7.4631759" id="base" borderopacity="1.0" showgrid="true" fit-margin-top="0">
	<inkscape:grid  type="xygrid" originy="-8.999973px" originx="-0.00011296354px" id="grid4137"></inkscape:grid>
</sodipodi:namedview>
<g id="g4367" transform="matrix(0,0.21226415,0.18181815,0,63.512099,406.7524)">
	<g>
		<g id="g4369">
			<g id="g4371" transform="translate(358.7529,350.7095)">
				<path id="path4373" inkscape:connector-curvature="0" fill="#DD4814" d="M-2227.1-665.3c3.9,3,8,6.4,12.1,10.2
					c4.1,3.7,8.2,7.8,12.2,12.1c1.1,1.2,2.1,2.3,3.2,3.5h-11.6c-2.3-2.3-4.7-4.7-7.1-7c-2.9-2.7-5.8-5.1-8.8-7.5s-7.3-5.1-10.1-7
					c-2.9,1.9-7.1,4.7-10.1,7c-3,2.3-5.9,4.8-8.8,7.5c-2.5,2.2-4.9,4.6-7.1,7h-11.7c1-1.2,2.1-2.3,3.2-3.5c4-4.3,8.1-8.4,12.2-12.1
					c4.1-3.7,8.1-7.2,12.1-10.2c3.9-3,7.4-5.4,10.3-7.1C-2234.4-670.7-2231-668.3-2227.1-665.3"/>
			</g>
		</g>
	</g>
</g>
</svg>
