<?xml version="1.0" encoding="UTF-8" standalone="no"?>
<svg width="16px" height="16px" viewBox="0 0 16 16" version="1.1" xmlns="http://www.w3.org/2000/svg" xmlns:xlink="http://www.w3.org/1999/xlink" xmlns:sketch="http://www.bohemiancoding.com/sketch/ns">
    <!-- Generator: Sketch 3.2.2 (9983) - http://www.bohemiancoding.com/sketch -->
    <title>debug icon 8@2x</title>
    <desc>Created with Sketch.</desc>
    <defs></defs>
    <g id="Machine-events" stroke="none" stroke-width="1" fill="none" fill-rule="evenodd" sketch:type="MSPage">
        <g id="01-maas-machine-details" sketch:type="MSArtboardGroup" transform="translate(-128.000000, -1057.000000)" fill="#808080">
            <g id="Latest-events" sketch:type="MSLayerGroup" transform="translate(123.000000, 226.000000)">
                <g id="table-all" sketch:type="MSShapeGroup">
                    <g id="event-row-21" transform="translate(0.000000, 819.000000)">
                        <path d="M16.6730384,24.9941301 L19.679,28.00001 L20.9933,26.68371 L17.9891761,23.6794228 C18.6258186,22.7817915 19.0000424,21.6849483 19.0000424,20.5007 C19.0000424,17.4626946 16.5372777,14.9999018 13.4993,14.9999018 C10.4613223,14.9999018 7.9985576,17.4626946 7.9985576,20.5007 C7.9985576,23.5387054 10.4613223,26.0014982 13.4993,26.0014982 C14.68136,26.0014982 15.7763359,25.6286451 16.6730384,24.9941301 L16.6730384,24.9941301 Z M9.2485576,20.5007 C9.2485576,18.1530474 11.1516814,16.2499018 13.4993,16.2499018 C15.8469186,16.2499018 17.7500424,18.1530474 17.7500424,20.5007 C17.7500424,22.8483526 15.8469186,24.7514982 13.4993,24.7514982 C11.1516814,24.7514982 9.2485576,22.8483526 9.2485576,20.5007 Z M11,21.00003 L16,21.00003 L16,22.00003 L11,22.00003 L11,21.00003 Z M11,19.00003 L16,19.00003 L16,20.00003 L11,20.00003 L11,19.00003 Z M9.7109375,12 C7.8444375,12 6.6446406,12.0948038 5.86914062,12.8710938 C5.09364062,13.6474238 5,14.8464637 5,16.7148438 L5,21.2832031 C5,23.151583 5.09404062,24.350633 5.86914062,25.126953 C6.5367333,25.79526 7.5488947,25.951489 9,25.984375 L9,24.982422 C7.6731994,24.938493 6.9246419,24.770677 6.5761719,24.421875 C6.1671719,24.012395 6,23.104013 6,21.2832031 L6,16.7148438 C6,14.8940337 6.1671719,13.987615 6.5761719,13.578125 C6.9852719,13.168635 7.8920375,13 9.7109375,13 L14.2871094,13 C16.105909,13 17.012875,13.168645 17.421875,13.578125 C17.770008,13.9265896 17.936239,14.6745704 17.980469,16 L18.986328,16 C18.953465,14.5493611 18.79573,13.5389848 18.128906,12.8710938 C17.353406,12.0947638 16.153609,12 14.2871094,12 L9.7109375,12 Z" id="debug-icon-8"></path>
                    </g>
                </g>
            </g>
        </g>
    </g>
</svg>