<?xml version="1.0" encoding="UTF-8" standalone="no"?>
<!-- Created with Inkscape (http://www.inkscape.org/) -->

<svg
   xmlns:dc="http://purl.org/dc/elements/1.1/"
   xmlns:cc="http://creativecommons.org/ns#"
   xmlns:rdf="http://www.w3.org/1999/02/22-rdf-syntax-ns#"
   xmlns:svg="http://www.w3.org/2000/svg"
   xmlns="http://www.w3.org/2000/svg"
   xmlns:sodipodi="http://sodipodi.sourceforge.net/DTD/sodipodi-0.dtd"
   xmlns:inkscape="http://www.inkscape.org/namespaces/inkscape"
   width="16"
   height="15.999999"
   id="svg5918"
   version="1.1"
   inkscape:version="0.91pre2 r"
   viewBox="0 0 16 15.999999"
   sodipodi:docname="edit_16.svg">
  <defs
     id="defs5920">
    <clipPath
       id="clipPath16"
       clipPathUnits="userSpaceOnUse">
      <path
         inkscape:connector-curvature="0"
         id="path18"
         d="m 0,595.28 841.89,0 L 841.89,0 0,0 0,595.28 Z" />
    </clipPath>
    <clipPath
       id="clipPath16-0"
       clipPathUnits="userSpaceOnUse">
      <path
         inkscape:connector-curvature="0"
         id="path18-1"
         d="m 0,595.28 841.89,0 L 841.89,0 0,0 0,595.28 Z" />
    </clipPath>
    <clipPath
       id="clipPath16-9"
       clipPathUnits="userSpaceOnUse">
      <path
         inkscape:connector-curvature="0"
         id="path18-3"
         d="m 0,595.28 841.89,0 L 841.89,0 0,0 0,595.28 Z" />
    </clipPath>
    <clipPath
       id="clipPath16-7"
       clipPathUnits="userSpaceOnUse">
      <path
         inkscape:connector-curvature="0"
         id="path18-7"
         d="m 0,595.28 841.89,0 L 841.89,0 0,0 0,595.28 Z" />
    </clipPath>
  </defs>
  <sodipodi:namedview
     id="base"
     pagecolor="#dedede"
     bordercolor="#666666"
     borderopacity="1.0"
     inkscape:pageopacity="0"
     inkscape:pageshadow="2"
     inkscape:zoom="30.357661"
     inkscape:cx="6.114383"
     inkscape:cy="7.4631759"
     inkscape:document-units="px"
     inkscape:current-layer="g5346"
     showgrid="true"
     fit-margin-top="0"
     fit-margin-left="0"
     fit-margin-right="0"
     fit-margin-bottom="0.2"
     inkscape:snap-bbox="true"
     inkscape:bbox-paths="true"
     inkscape:bbox-nodes="true"
     inkscape:snap-bbox-edge-midpoints="true"
     inkscape:snap-bbox-midpoints="true"
     inkscape:object-paths="true"
     inkscape:snap-intersection-paths="true"
     inkscape:object-nodes="true"
     inkscape:snap-smooth-nodes="true"
     inkscape:snap-midpoints="true"
     inkscape:snap-object-midpoints="true"
     inkscape:snap-center="true">
    <inkscape:grid
       type="xygrid"
       id="grid4137"
       originx="-0.00011296354px"
       originy="-8.999973px" />
  </sodipodi:namedview>
  <metadata
     id="metadata5923">
    <rdf:RDF>
      <cc:Work
         rdf:about="">
        <dc:format>image/svg+xml</dc:format>
        <dc:type
           rdf:resource="http://purl.org/dc/dcmitype/StillImage" />
        <dc:title></dc:title>
      </cc:Work>
    </rdf:RDF>
  </metadata>
  <g
     inkscape:label="Layer 1"
     inkscape:groupmode="layer"
     id="layer1"
     transform="translate(-182.93849,-560.7201)">
    <g
       style="display:inline"
       transform="matrix(0.66666607,0,0,0.66666668,-633.06096,6.8119427)"
       id="g5687" />
    <g
       style="display:inline"
       id="g5346"
       transform="translate(-769.06151,404.35792)">
      <g
         style="display:inline"
         transform="matrix(0.66666668,0,0,0.66666668,877.33333,-22.545946)"
         id="g4311">
        <rect
           style="color:#000000;display:inline;overflow:visible;visibility:visible;fill:none;stroke:none;stroke-width:7.5;marker:none;enable-background:accumulate"
           id="rect4313"
           width="24"
           height="24"
           x="111.99999"
           y="268.36218" />
        <rect
           style="color:#000000;display:inline;overflow:visible;visibility:visible;fill:none;stroke:none;stroke-width:7.5;marker:none;enable-background:accumulate"
           id="rect4315"
           width="23.999989"
           height="23.999989"
           x="111.99999"
           y="268.36218" />
        <rect
           style="color:#000000;display:inline;overflow:visible;visibility:visible;fill:#808080;fill-opacity:1;fill-rule:nonzero;stroke:none;stroke-width:7.5;marker:none;enable-background:accumulate"
           id="rect4317"
           width="6.0000072"
           height="1.5000025"
           x="130"
           y="284.86218" />
        <rect
           style="color:#000000;display:inline;overflow:visible;visibility:visible;fill:#808080;fill-opacity:1;fill-rule:nonzero;stroke:none;stroke-width:7.5;marker:none;enable-background:accumulate"
           id="rect4319"
           width="9.0000038"
           height="1.499999"
           x="127"
           y="287.86218" />
        <rect
           style="color:#000000;display:inline;overflow:visible;visibility:visible;fill:#808080;fill-opacity:1;fill-rule:nonzero;stroke:none;stroke-width:7.5;marker:none;enable-background:accumulate"
           id="rect4321"
           width="12.000005"
           height="1.5000058"
           x="124"
           y="290.86218" />
        <path
           style="color:#000000;display:inline;overflow:visible;visibility:visible;fill:#808080;fill-opacity:1;fill-rule:nonzero;stroke:none;stroke-width:3;marker:none;enable-background:accumulate"
           d="m 130.26155,268.38263 -14.46053,14.72044 c 0,0 -2.74088,4.30014 -3.78053,9.22545 5.7e-4,2.8e-4 6.5e-4,0 0.001,0.003 2.8e-4,0 1.5e-4,0 0.001,0.003 2.8e-4,0 -3.7e-4,0 5.1e-4,0.003 2.8e-4,2.4e-4 3.6e-4,0.003 0.001,0.003 4.9337,-1.03964 9.23411,-3.78053 9.23411,-3.78053 l 14.72043,-14.46083 z m -13.32952,15.85147 3.20576,3.20572 c -0.21573,0.12484 -3.25634,2.24881 -6.037,2.8348 -6.7e-4,0 -2.9e-4,-0.003 -5.1e-4,-0.003 -5.3e-4,-0.003 -3.5e-4,-0.003 -5.3e-4,-0.003 -5.2e-4,-0.003 -3.4e-4,-0.003 -5.2e-4,-0.003 -5.2e-4,-0.003 -6.5e-4,-0.003 -0.001,-0.003 0.5852,-2.77237 2.70627,-5.80941 2.83379,-6.02986 z"
           id="path4323"
           inkscape:connector-curvature="0"
           sodipodi:nodetypes="ccccccccccccccccccc" />
        <path
           style="color:#000000;display:inline;overflow:visible;visibility:visible;fill:#808080;fill-opacity:1;fill-rule:nonzero;stroke:none;stroke-width:9;marker:none;enable-background:accumulate"
           d="m 114.73356,287.86219 1.85036,1.85034 -3.08392,1.14966 z"
           id="path4325"
           inkscape:connector-curvature="0"
           sodipodi:nodetypes="cccc" />
      </g>
    </g>
  </g>
</svg>
