<?xml version="1.0" encoding="UTF-8" standalone="no"?>
<!-- Created with Inkscape (http://www.inkscape.org/) -->

<svg
   xmlns:dc="http://purl.org/dc/elements/1.1/"
   xmlns:cc="http://creativecommons.org/ns#"
   xmlns:rdf="http://www.w3.org/1999/02/22-rdf-syntax-ns#"
   xmlns:svg="http://www.w3.org/2000/svg"
   xmlns="http://www.w3.org/2000/svg"
   xmlns:sodipodi="http://sodipodi.sourceforge.net/DTD/sodipodi-0.dtd"
   xmlns:inkscape="http://www.inkscape.org/namespaces/inkscape"
   width="16"
   height="15.999999"
   id="svg5918"
   version="1.1"
   inkscape:version="0.91pre2 r"
   viewBox="0 0 16 15.999999"
   sodipodi:docname="help_16.svg">
  <defs
     id="defs5920">
    <clipPath
       id="clipPath16"
       clipPathUnits="userSpaceOnUse">
      <path
         inkscape:connector-curvature="0"
         id="path18"
         d="m 0,595.28 841.89,0 L 841.89,0 0,0 0,595.28 Z" />
    </clipPath>
    <clipPath
       id="clipPath16-0"
       clipPathUnits="userSpaceOnUse">
      <path
         inkscape:connector-curvature="0"
         id="path18-1"
         d="m 0,595.28 841.89,0 L 841.89,0 0,0 0,595.28 Z" />
    </clipPath>
    <clipPath
       id="clipPath16-9"
       clipPathUnits="userSpaceOnUse">
      <path
         inkscape:connector-curvature="0"
         id="path18-3"
         d="m 0,595.28 841.89,0 L 841.89,0 0,0 0,595.28 Z" />
    </clipPath>
  </defs>
  <sodipodi:namedview
     id="base"
     pagecolor="#dedede"
     bordercolor="#666666"
     borderopacity="1.0"
     inkscape:pageopacity="0"
     inkscape:pageshadow="2"
     inkscape:zoom="30.357661"
     inkscape:cx="6.114383"
     inkscape:cy="7.4631759"
     inkscape:document-units="px"
     inkscape:current-layer="g5346"
     showgrid="true"
     fit-margin-top="0"
     fit-margin-left="0"
     fit-margin-right="0"
     fit-margin-bottom="0.2"
     inkscape:snap-bbox="true"
     inkscape:bbox-paths="true"
     inkscape:bbox-nodes="true"
     inkscape:snap-bbox-edge-midpoints="true"
     inkscape:snap-bbox-midpoints="true"
     inkscape:object-paths="true"
     inkscape:snap-intersection-paths="true"
     inkscape:object-nodes="true"
     inkscape:snap-smooth-nodes="true"
     inkscape:snap-midpoints="true"
     inkscape:snap-object-midpoints="true"
     inkscape:snap-center="true">
    <inkscape:grid
       type="xygrid"
       id="grid4137"
       originx="-0.00011296354px"
       originy="-8.999973px" />
  </sodipodi:namedview>
  <metadata
     id="metadata5923">
    <rdf:RDF>
      <cc:Work
         rdf:about="">
        <dc:format>image/svg+xml</dc:format>
        <dc:type
           rdf:resource="http://purl.org/dc/dcmitype/StillImage" />
        <dc:title></dc:title>
      </cc:Work>
    </rdf:RDF>
  </metadata>
  <g
     inkscape:label="Layer 1"
     inkscape:groupmode="layer"
     id="layer1"
     transform="translate(-182.93849,-560.7201)">
    <g
       style="display:inline"
       transform="matrix(0.66666607,0,0,0.66666668,-633.06096,6.8119427)"
       id="g5687" />
    <g
       style="display:inline"
       id="g5346"
       transform="translate(-769.06151,404.35792)">
      <g
         style="display:inline"
         transform="matrix(0.66666668,0,0,0.66666668,877.33333,-315.87928)"
         id="g4401">
        <rect
           style="color:#000000;display:inline;overflow:visible;visibility:visible;fill:none;stroke:none;stroke-width:7.5;marker:none;enable-background:accumulate"
           id="rect4403"
           width="24"
           height="24"
           x="111.99999"
           y="708.36218" />
        <path
           inkscape:connector-curvature="0"
           id="path4405"
           d="m 124.01107,716.19691 q -0.64636,0 -1.23731,0.16621 -0.59095,0.14774 -1.2373,0.49862 l -0.62789,-1.71746 q 0.68329,-0.38781 1.55125,-0.60942 0.88643,-0.24007 1.80979,-0.24007 1.10803,0 1.82825,0.31394 0.72023,0.29548 1.14497,0.75716 0.42475,0.46168 0.59095,1.0157 0.16621,0.55401 0.16621,1.0711 0,0.62788 -0.24007,1.1265 -0.22161,0.49861 -0.57249,0.92336 -0.35088,0.42475 -0.75715,0.81256 -0.40628,0.36934 -0.75716,0.77562 -0.35088,0.38781 -0.59095,0.83103 -0.22161,0.44321 -0.22161,0.99723 0,0.0923 0,0.2216 0,0.11081 0.0185,0.22161 l -1.92059,0 q -0.0369,-0.18467 -0.0554,-0.38781 -0.0185,-0.22161 -0.0185,-0.40628 0,-0.60942 0.20314,-1.08957 0.20314,-0.48014 0.51708,-0.88642 0.31394,-0.40628 0.66482,-0.75716 0.36934,-0.35088 0.68329,-0.70176 0.31394,-0.35087 0.51708,-0.72022 0.20314,-0.36934 0.20314,-0.81256 0,-0.60941 -0.42475,-0.99723 -0.40628,-0.40628 -1.2373,-0.40628 z"
           style="font-style:normal;font-variant:normal;font-weight:500;font-stretch:normal;font-size:medium;line-height:125%;font-family:Ubuntu;-inkscape-font-specification:'Ubuntu Medium';text-align:center;letter-spacing:0px;word-spacing:0px;writing-mode:lr-tb;text-anchor:middle;fill:#808080;fill-opacity:1;stroke:none" />
        <path
           inkscape:connector-curvature="0"
           id="path4407"
           d="m 125.47737,726.37143 q 0,0.64635 -0.42474,1.05263 -0.42475,0.40628 -1.05264,0.40628 -0.60942,0 -1.05263,-0.40628 -0.42475,-0.40628 -0.42475,-1.05263 0,-0.64635 0.42475,-1.05263 0.44321,-0.42475 1.05263,-0.42475 0.62789,0 1.05264,0.42475 0.42474,0.40628 0.42474,1.05263 z"
           style="font-style:normal;font-variant:normal;font-weight:500;font-stretch:normal;font-size:medium;line-height:125%;font-family:Ubuntu;-inkscape-font-specification:'Ubuntu Medium';text-align:center;letter-spacing:0px;word-spacing:0px;writing-mode:lr-tb;text-anchor:middle;fill:#808080;fill-opacity:1;stroke:none" />
        <circle
           style="color:#000000;display:inline;overflow:visible;visibility:visible;fill:none;stroke:#808080;stroke-width:2.0111742;stroke-linecap:round;stroke-linejoin:round;stroke-miterlimit:4;stroke-dasharray:none;stroke-dashoffset:0;stroke-opacity:1;marker:none;enable-background:accumulate"
           id="circle4409"
           cx="123.99999"
           cy="720.36212"
           r="10.994417"
           d="m 134.99441,720.36212 a 10.994417,10.994417 0 0 1 -10.99442,10.99442 10.994417,10.994417 0 0 1 -10.99441,-10.99442 10.994417,10.994417 0 0 1 10.99441,-10.99442 10.994417,10.994417 0 0 1 10.99442,10.99442 z" />
      </g>
    </g>
  </g>
</svg>
