<?xml version="1.0" encoding="utf-8"?>
<!-- Generator: Adobe Illustrator 17.0.2, SVG Export Plug-In . SVG Version: 6.00 Build 0)  -->
<!DOCTYPE svg PUBLIC "-//W3C//DTD SVG 1.1//EN" "http://www.w3.org/Graphics/SVG/1.1/DTD/svg11.dtd">
<svg version="1.1" id="Layer_1" xmlns="http://www.w3.org/2000/svg" xmlns:xlink="http://www.w3.org/1999/xlink" x="0px" y="0px"
	 width="16px" height="16px" viewBox="0 0 16 16" enable-background="new 0 0 16 16" xml:space="preserve">
<path fill="#AEA79F" d="M5.821,9.465C6.65,9.936,7.376,10.307,8,10.578c0.624-0.271,1.35-0.642,2.179-1.113
	c0.829-0.471,1.683-1.002,2.562-1.594s1.743-1.227,2.594-1.904C15.563,5.786,15.784,5.604,16,5.422h-2.466
	c-0.488,0.372-0.992,0.736-1.516,1.091c-0.61,0.414-1.233,0.802-1.871,1.166C9.509,8.042,8.609,8.489,8,8.774
	C7.391,8.489,6.49,8.043,5.853,7.679C5.215,7.315,4.592,6.927,3.982,6.513C3.458,6.158,2.953,5.794,2.466,5.422H0
	c0.216,0.182,0.437,0.364,0.665,0.546C1.515,6.645,2.38,7.28,3.259,7.872C4.138,8.464,4.992,8.995,5.821,9.465"/>
</svg>
