<?xml version="1.0" encoding="iso-8859-1"?>
<!-- Generator: Adobe Illustrator 17.0.2, SVG Export Plug-In . SVG Version: 6.00 Build 0)  -->
<!DOCTYPE svg PUBLIC "-//W3C//DTD SVG 1.1//EN" "http://www.w3.org/Graphics/SVG/1.1/DTD/svg11.dtd">
<svg version="1.1" xmlns="http://www.w3.org/2000/svg" xmlns:xlink="http://www.w3.org/1999/xlink" x="0px" y="0px" width="16px"
	 height="16px" viewBox="0 0 16 16" style="enable-background:new 0 0 16 16;" xml:space="preserve">
<path style="fill:#AEA79F;" d="M5.821,6.535C4.992,7.005,4.138,7.536,3.259,8.128
	C2.38,8.72,1.515,9.355,0.665,10.032C0.437,10.214,0.216,10.396,0,10.578h2.466c0.487-0.372,0.992-0.736,1.516-1.091
	c0.61-0.414,1.233-0.802,1.871-1.166C6.49,7.957,7.391,7.511,8,7.226c0.609,0.285,1.509,0.732,2.147,1.095
	c0.638,0.364,1.261,0.752,1.871,1.166c0.524,0.355,1.028,0.719,1.516,1.091H16c-0.216-0.182-0.437-0.364-0.665-0.545
	c-0.851-0.677-1.715-1.312-2.594-1.904c-0.879-0.592-1.733-1.123-2.562-1.594C9.35,6.064,8.624,5.693,8,5.422
	C7.376,5.693,6.65,6.064,5.821,6.535"/>
</svg>
