<?xml version="1.0" encoding="utf-8"?>
<!-- Generator: Adobe Illustrator 18.0.0, SVG Export Plug-In . SVG Version: 6.00 Build 0)  -->
<!DOCTYPE svg PUBLIC "-//W3C//DTD SVG 1.1//EN" "http://www.w3.org/Graphics/SVG/1.1/DTD/svg11.dtd">
<svg version="1.1"
	 id="svg5918" inkscape:version="0.91pre2 r" sodipodi:docname="general-action.svg" xmlns:cc="http://creativecommons.org/ns#" xmlns:dc="http://purl.org/dc/elements/1.1/" xmlns:rdf="http://www.w3.org/1999/02/22-rdf-syntax-ns#" xmlns:svg="http://www.w3.org/2000/svg" xmlns:inkscape="http://www.inkscape.org/namespaces/inkscape" xmlns:sodipodi="http://sodipodi.sourceforge.net/DTD/sodipodi-0.dtd"
	 xmlns="http://www.w3.org/2000/svg" xmlns:xlink="http://www.w3.org/1999/xlink" x="0px" y="0px" width="16px" height="16px"
	 viewBox="0 0 16 16" enable-background="new 0 0 16 16" xml:space="preserve">
<sodipodi:namedview  inkscape:snap-intersection-paths="true" inkscape:snap-bbox-edge-midpoints="true" inkscape:object-nodes="true" inkscape:snap-midpoints="true" inkscape:snap-object-midpoints="true" inkscape:snap-center="true" inkscape:snap-smooth-nodes="true" fit-margin-bottom="0" inkscape:object-paths="true" inkscape:snap-bbox-midpoints="true" inkscape:bbox-nodes="true" inkscape:snap-bbox="true" inkscape:bbox-paths="true" fit-margin-right="0" inkscape:current-layer="layer1" inkscape:pageopacity="0" inkscape:pageshadow="2" inkscape:document-units="px" bordercolor="#666666" pagecolor="#dedede" inkscape:zoom="24.286129" inkscape:cx="0.56486488" fit-margin-left="0" inkscape:cy="4.846988" id="base" borderopacity="1.0" showgrid="true" fit-margin-top="0">
	<inkscape:grid  type="xygrid" originy="-8.9999724px" originx="-0.00011142332px" id="grid4137"></inkscape:grid>
</sodipodi:namedview>
<rect id="rect5430" fill="none" width="16" height="16"/>
<g>
	<path fill="#19B6EE" d="M8,0C3.6,0,0,3.6,0,8c0,4.4,3.6,8,8,8s8-3.6,8-8C16,3.6,12.4,0,8,0z M8,14.5c-3.6,0-6.5-2.9-6.5-6.5
		c0-3.6,2.9-6.5,6.5-6.5s6.5,2.9,6.5,6.5C14.5,11.6,11.6,14.5,8,14.5z"/>
	<rect x="7" y="10" fill="#19B6EE" width="2" height="2"/>
	<rect x="7" y="4" fill="#19B6EE" width="2" height="5"/>
</g>
</svg>
