<?xml version="1.0" encoding="UTF-8"?>
<svg width="16px" height="16px" viewBox="0 0 16 16" version="1.1" xmlns="http://www.w3.org/2000/svg" xmlns:xlink="http://www.w3.org/1999/xlink">
    <!-- Generator: Sketch 42 (36781) - http://www.bohemiancoding.com/sketch -->
    <title>checkbox</title>
    <desc>Created with Sketch.</desc>
    <defs></defs>
    <g id="Page-1" stroke="none" stroke-width="1" fill="none" fill-rule="evenodd">
        <g id="checkbox" fill-rule="nonzero">
            <path d="M2.66666008,1.71703835e-05 C0.88888008,1.71703835e-05 -9.9203836e-06,0.000667170383 -9.9203836e-06,2.06772717 L-9.9203836e-06,13.9336172 C-9.9203836e-06,16.0006572 0.88888008,16.0000172 2.66666008,16.0000172 L13.3333201,16.0000172 C15.1111001,16.0000172 15.9999801,16.0006572 15.9999801,13.9336172 L15.9999801,2.13412717 C15.9999801,0.000797170383 15.1111001,1.71703835e-05 13.3333201,1.71703835e-05 L2.66666008,1.71703835e-05 Z" id="path4833-5-5" fill="#335280"></path>
            <polygon id="path5410" fill="#FFFFFF" points="12.8734001 4.22761717 12.7955001 4.29591717 7.19986008 9.19719717 3.91961008 6.38334717 2.92800008 7.50475717 7.20067008 12.0000672 13.7003101 5.16056717 12.8733601 4.22777717"></polygon>
        </g>
    </g>
</svg>