<?xml version="1.0" encoding="UTF-8" standalone="no"?>
<svg width="13px" height="13px" viewBox="0 0 13 13" version="1.1" xmlns="http://www.w3.org/2000/svg" xmlns:xlink="http://www.w3.org/1999/xlink" xmlns:sketch="http://www.bohemiancoding.com/sketch/ns">
    <!-- Generator: Sketch 3.2.2 (9983) - http://www.bohemiancoding.com/sketch -->
    <title>Untitled 3</title>
    <desc>Created with Sketch.</desc>
    <defs>
        <filter x="-50%" y="-50%" width="200%" height="200%" filterUnits="objectBoundingBox" id="filter-1">
            <feOffset dx="0" dy="1" in="SourceAlpha" result="shadowOffsetInner1"></feOffset>
            <feGaussianBlur stdDeviation="1.5" in="shadowOffsetInner1" result="shadowBlurInner1"></feGaussianBlur>
            <feComposite in="shadowBlurInner1" in2="SourceAlpha" operator="arithmetic" k2="-1" k3="1" result="shadowInnerInner1"></feComposite>
            <feColorMatrix values="0 0 0 0 0   0 0 0 0 0   0 0 0 0 0  0 0 0 0.21 0" in="shadowInnerInner1" type="matrix" result="shadowMatrixInner1"></feColorMatrix>
            <feMerge>
                <feMergeNode in="SourceGraphic"></feMergeNode>
                <feMergeNode in="shadowMatrixInner1"></feMergeNode>
            </feMerge>
        </filter>
    </defs>
    <g id="Page-1" stroke="none" stroke-width="1" fill="none" fill-rule="evenodd" sketch:type="MSPage">
        <g id="checked-box" sketch:type="MSLayerGroup">
            <rect id="check-box" fill="#DD4814" filter="url(#filter-1)" sketch:type="MSShapeGroup" x="0" y="0" width="13" height="13" rx="3"></rect>
            <path d="M9.409,4.004 C8.81,4.401 8.219,4.822 7.636,5.265 C7.052,5.71 6.509,6.161 6.007,6.619 C5.659,6.936 5.354,7.24 5.084,7.534 C4.814,7.24 4.596,6.936 4.249,6.619 C3.747,6.161 3.204,5.71 2.62,5.265 C2.414,5.109 2.207,4.959 2,4.809 L2,6.641 C2.103,6.724 2.209,6.804 2.31,6.887 C2.805,7.298 3.259,7.715 3.673,8.139 C4.028,8.503 4.698,9.479 5.084,9.99 C5.47,9.479 6.228,8.503 6.583,8.139 C6.997,7.715 7.451,7.298 7.946,6.887 C8.441,6.478 8.958,6.085 9.497,5.709 C10.037,5.333 10.477,5.001 10.994,4.714 L10.994,3 C10.477,3.273 10.007,3.608 9.409,4.004" id="Imported-Layers-2" fill="#FFFFFF" sketch:type="MSShapeGroup"></path>
        </g>
    </g>
</svg>