<?xml version="1.0" encoding="utf-8"?>
<!-- Generator: Adobe Illustrator 16.0.4, SVG Export Plug-In . SVG Version: 6.00 Build 0)  -->
<!DOCTYPE svg PUBLIC "-//W3C//DTD SVG 1.1//EN" "http://www.w3.org/Graphics/SVG/1.1/DTD/svg11.dtd">
<svg version="1.1" id="Layer_1" xmlns="http://www.w3.org/2000/svg" xmlns:xlink="http://www.w3.org/1999/xlink" x="0px" y="0px"
	 width="325.484px" height="114px" viewBox="0 0 325.484 114" enable-background="new 0 0 325.484 114" xml:space="preserve">
<g>
	<path fill="#DD4916" d="M105,57c0,26.51-21.49,48-48,48S9,83.51,9,57S30.49,9,57,9S105,30.49,105,57"/>
	<path fill="#FFFFFF" d="M32.996,34.991c-2.209-0.031-4.025,1.734-4.057,3.943c-0.031,2.21,1.735,4.026,3.944,4.057
		c0.038,0.001,0.075,0.001,0.113,0h48c2.209,0.031,4.025-1.734,4.057-3.943c0.031-2.21-1.735-4.026-3.944-4.057
		c-0.038-0.001-0.075-0.001-0.113,0H32.996z"/>
	<path fill="#FFFFFF" d="M32.996,46.991c-2.209-0.031-4.025,1.734-4.057,3.943c-0.031,2.21,1.735,4.026,3.944,4.057
		c0.038,0.001,0.075,0.001,0.113,0h48c2.209,0.031,4.025-1.734,4.057-3.943c0.031-2.21-1.735-4.026-3.944-4.057
		c-0.038-0.001-0.075-0.001-0.113,0H32.996z"/>
	<path fill="#FFFFFF" d="M32.996,58.99c-2.209-0.03-4.025,1.734-4.057,3.943c-0.031,2.21,1.735,4.026,3.944,4.057
		c0.038,0.001,0.075,0.001,0.113,0h48c2.209,0.031,4.025-1.733,4.057-3.942c0.031-2.21-1.735-4.026-3.944-4.058
		c-0.038-0.001-0.075-0.001-0.113,0H32.996z"/>
	<path fill="#FFFFFF" d="M32.996,70.99c-2.209-0.03-4.025,1.734-4.057,3.943c-0.031,2.21,1.735,4.026,3.944,4.057
		c0.038,0.001,0.075,0.001,0.113,0h48c2.209,0.031,4.025-1.733,4.057-3.942c0.031-2.21-1.735-4.026-3.944-4.058
		c-0.038-0.001-0.075-0.001-0.113,0H32.996z"/>
	<path fill="#FFFFFF" d="M152.688,74.748c-0.483-1.199-1.17-2.783-2.062-4.752c-0.891-1.968-1.891-4.115-3-6.444
		c-1.11-2.327-2.243-4.727-3.4-7.2c-1.157-2.471-2.267-4.788-3.326-6.948c-1.061-2.16-2.001-4.055-2.82-5.688
		c-0.821-1.631-1.423-2.783-1.808-3.456c-0.625,6.001-1.116,12.517-1.477,19.548c-0.359,7.033-0.683,14.413-0.971,22.141H129
		c0.432-9.072,0.923-17.76,1.476-26.064c0.551-8.303,1.234-16.247,2.052-23.832h4.319c1.443,2.401,2.982,5.173,4.617,8.316
		c1.635,3.145,3.258,6.408,4.87,9.792c1.611,3.384,3.174,6.721,4.69,10.008c1.514,3.288,2.85,6.253,4.004,8.892
		c1.154-2.639,2.488-5.604,4.004-8.892c1.513-3.287,3.078-6.624,4.688-10.008c1.611-3.384,3.234-6.647,4.87-9.792
		c1.635-3.143,3.174-5.915,4.618-8.316h4.104c0.815,7.585,1.499,15.529,2.052,23.832c0.551,8.305,1.044,16.992,1.476,26.064h-4.968
		c-0.287-7.728-0.612-15.107-0.972-22.141c-0.36-7.031-0.853-13.547-1.477-19.548c-0.385,0.673-0.984,1.825-1.8,3.456
		c-0.816,1.633-1.753,3.528-2.808,5.688c-1.057,2.16-2.16,4.477-3.312,6.948c-1.151,2.474-2.28,4.873-3.383,7.2
		c-1.105,2.329-2.101,4.477-2.989,6.444c-0.888,1.969-1.572,3.553-2.051,4.752H152.688z"/>
	<path fill="#FFFFFF" d="M226.125,81.948c-0.951-2.45-1.827-4.807-2.627-7.07c-0.8-2.262-1.564-4.466-2.293-6.609H196.83
		c-0.832,2.154-1.648,4.363-2.444,6.628c-0.797,2.264-1.641,4.614-2.53,7.052h-5.112c1.895-5.195,3.685-10.034,5.37-14.521
		c1.685-4.484,3.339-8.729,4.959-12.731c1.62-4.003,3.229-7.849,4.827-11.541c1.598-3.69,3.276-7.391,5.038-11.102h4.316
		c1.76,3.694,3.43,7.391,5.01,11.088c1.579,3.697,3.183,7.548,4.808,11.548c1.626,4.001,3.274,8.248,4.943,12.739
		c1.669,4.492,3.508,9.332,5.513,14.521H226.125z M208.955,37.668c-1.807,4.144-3.564,8.351-5.276,12.617
		c-1.711,4.267-3.481,8.869-5.312,13.807h21.297c-1.843-4.944-3.637-9.554-5.382-13.826
		C212.535,45.993,210.76,41.794,208.955,37.668"/>
	<path fill="#FFFFFF" d="M274.651,81.948c-0.951-2.45-1.827-4.807-2.627-7.07c-0.8-2.262-1.564-4.466-2.293-6.609h-24.375
		c-0.832,2.154-1.648,4.363-2.444,6.628c-0.797,2.264-1.641,4.614-2.53,7.052h-5.112c1.895-5.195,3.685-10.034,5.37-14.521
		c1.685-4.484,3.339-8.729,4.959-12.731c1.62-4.003,3.229-7.849,4.827-11.541c1.598-3.69,3.276-7.391,5.038-11.102h4.316
		c1.76,3.694,3.43,7.391,5.01,11.088c1.579,3.697,3.183,7.548,4.808,11.548c1.626,4.001,3.274,8.248,4.943,12.739
		c1.669,4.492,3.508,9.332,5.513,14.521H274.651z M257.481,37.668c-1.807,4.144-3.564,8.351-5.276,12.617
		c-1.711,4.267-3.481,8.869-5.312,13.807h21.297c-1.843-4.944-3.637-9.554-5.382-13.826
		C261.062,45.993,259.286,41.794,257.481,37.668"/>
	<path fill="#FFFFFF" d="M299.061,78.78c3.888,0,6.912-0.709,9.072-2.129c2.16-1.419,3.239-3.718,3.239-6.893
		c0-1.828-0.349-3.354-1.044-4.582c-0.696-1.226-1.62-2.261-2.771-3.102c-1.152-0.842-2.474-1.562-3.96-2.158
		c-1.488-0.596-3.049-1.228-4.681-1.897c-2.063-0.81-3.912-1.644-5.544-2.503c-1.632-0.858-3.023-1.828-4.176-2.908
		c-1.151-1.08-2.028-2.315-2.628-3.708c-0.601-1.391-0.9-3.024-0.9-4.896c0-4.272,1.415-7.512,4.248-9.72
		c2.832-2.207,6.769-3.312,11.809-3.312c1.343,0,2.664,0.097,3.96,0.288c1.296,0.192,2.508,0.444,3.636,0.756
		c1.128,0.313,2.16,0.66,3.096,1.044c0.937,0.385,1.716,0.792,2.341,1.224l-1.729,4.104c-1.393-0.96-3.085-1.728-5.076-2.304
		c-1.993-0.576-4.14-0.864-6.443-0.864c-1.584,0-3.037,0.156-4.356,0.468c-1.321,0.313-2.46,0.817-3.42,1.512
		c-0.961,0.696-1.717,1.573-2.268,2.628c-0.553,1.056-0.828,2.329-0.828,3.816c0,1.537,0.288,2.833,0.863,3.888
		c0.576,1.056,1.38,1.969,2.412,2.736c1.032,0.768,2.244,1.465,3.637,2.088c1.392,0.624,2.903,1.272,4.535,1.944
		c1.968,0.817,3.828,1.632,5.58,2.448c1.751,0.817,3.276,1.776,4.572,2.88c1.296,1.105,2.328,2.448,3.096,4.032
		s1.152,3.528,1.152,5.832c0,4.513-1.572,7.896-4.716,10.151c-3.146,2.258-7.404,3.385-12.78,3.385c-1.92,0-3.672-0.12-5.256-0.36
		c-1.584-0.241-3-0.54-4.248-0.9c-1.249-0.359-2.304-0.73-3.168-1.115s-1.536-0.721-2.016-1.009l1.584-4.247
		c0.479,0.287,1.127,0.623,1.943,1.008s1.775,0.756,2.88,1.115c1.104,0.36,2.352,0.66,3.744,0.9
		C295.844,78.661,297.38,78.78,299.061,78.78"/>
</g>
</svg>
