<?xml version="1.0" encoding="utf-8"?>
<!-- Generator: Adobe Illustrator 16.0.4, SVG Export Plug-In . SVG Version: 6.00 Build 0)  -->
<!DOCTYPE svg PUBLIC "-//W3C//DTD SVG 1.1//EN" "http://www.w3.org/Graphics/SVG/1.1/DTD/svg11.dtd">
<svg version="1.1" id="Layer_1" xmlns:sketch="http://www.bohemiancoding.com/sketch/ns"
	 xmlns="http://www.w3.org/2000/svg" xmlns:xlink="http://www.w3.org/1999/xlink" x="0px" y="0px" width="281px" height="87px"
	 viewBox="0 0 281 87" enable-background="new 0 0 281 87" xml:space="preserve">
<title>Untitled 2 copy</title>
<desc>Created with Sketch.</desc>
<g id="Page-1" sketch:type="MSPage">
	<g id="Imported-Layers" sketch:type="MSLayerGroup">
		<path id="Fill-1" sketch:type="MSShapeGroup" fill="#DD4813" d="M87.033,43.138c0,23.797-19.291,43.088-43.087,43.088
			c-23.796,0-43.088-19.291-43.088-43.088C0.858,19.342,20.15,0.05,43.946,0.05C67.742,0.05,87.033,19.342,87.033,43.138"/>
		<path id="Fill-2" sketch:type="MSShapeGroup" fill="#FFFFFF" d="M22.398,23.381c-1.983-0.028-3.614,1.557-3.641,3.539
			c-0.029,1.985,1.556,3.614,3.539,3.643h0.102h43.087c1.985,0.028,3.614-1.558,3.642-3.541c0.027-1.982-1.556-3.613-3.54-3.641
			c-0.033-0.001-0.067-0.001-0.102,0H22.398"/>
		<path id="Fill-3" sketch:type="MSShapeGroup" fill="#FFFFFF" d="M22.398,34.153c-1.983-0.028-3.614,1.557-3.641,3.539
			c-0.029,1.985,1.556,3.614,3.539,3.642c0.035,0.001,0.069,0.001,0.102,0h43.087c1.985,0.028,3.614-1.557,3.642-3.54
			c0.027-1.982-1.556-3.613-3.54-3.641c-0.033-0.001-0.067-0.001-0.102,0H22.398"/>
		<path id="Fill-4" sketch:type="MSShapeGroup" fill="#FFFFFF" d="M22.398,44.925c-1.983-0.028-3.614,1.556-3.641,3.54
			c-0.029,1.983,1.556,3.613,3.539,3.641h0.102h43.087c1.985,0.028,3.614-1.556,3.642-3.539c0.027-1.982-1.556-3.613-3.54-3.642
			h-0.102H22.398"/>
		<path id="Fill-5" sketch:type="MSShapeGroup" fill="#FFFFFF" d="M22.398,55.697c-1.983-0.029-3.614,1.557-3.641,3.539
			c-0.029,1.984,1.556,3.613,3.539,3.642h0.102h43.087c1.985,0.028,3.614-1.558,3.642-3.54c0.027-1.984-1.556-3.613-3.54-3.641
			c-0.033-0.002-0.067-0.002-0.102,0H22.398"/>
		<path id="Fill-6" sketch:type="MSShapeGroup" fill="#FFFFFF" d="M130.585,59.566c-0.426-1.022-0.989-2.317-1.691-3.891
			c-0.702-1.572-1.457-3.273-2.264-5.102c-0.807-1.827-1.668-3.709-2.582-5.641c-0.913-1.936-1.774-3.764-2.582-5.485
			c-0.808-1.721-1.563-3.262-2.263-4.623c-0.703-1.36-1.265-2.401-1.691-3.124c-0.468,5.016-0.85,10.447-1.147,16.291
			c-0.298,5.845-0.554,11.742-0.765,17.693h-6.057c0.17-3.826,0.361-7.684,0.574-11.572c0.211-3.889,0.455-7.715,0.733-11.478
			c0.275-3.761,0.574-7.428,0.893-10.999c0.317-3.571,0.669-6.949,1.051-10.138h5.42c1.149,1.872,2.38,4.082,3.699,6.631
			c1.316,2.55,2.635,5.219,3.952,8.002c1.318,2.785,2.592,5.569,3.826,8.354c1.233,2.783,2.359,5.324,3.38,7.617
			c1.021-2.293,2.146-4.834,3.38-7.617c1.231-2.785,2.507-5.569,3.823-8.354c1.319-2.783,2.635-5.452,3.955-8.002
			c1.316-2.549,2.549-4.759,3.699-6.631h5.42c1.443,14.241,2.528,28.97,3.252,44.187h-6.059c-0.213-5.951-0.469-11.849-0.766-17.693
			c-0.299-5.844-0.68-11.275-1.146-16.291c-0.425,0.723-0.99,1.764-1.689,3.124c-0.703,1.361-1.457,2.902-2.265,4.623
			c-0.808,1.722-1.669,3.55-2.582,5.485c-0.915,1.932-1.776,3.813-2.581,5.641c-0.809,1.828-1.563,3.529-2.265,5.102
			c-0.702,1.573-1.265,2.868-1.69,3.891H130.585"/>
		<path id="Fill-7" sketch:type="MSShapeGroup" fill="#FFFFFF" d="M195.812,65.686c-0.723-1.912-1.402-3.793-2.041-5.642
			c-0.64-1.851-1.297-3.729-1.977-5.646h-20.021l-4.017,11.287h-6.44c1.699-4.674,3.293-9,4.783-12.974
			c1.487-3.976,2.942-7.748,4.367-11.319c1.424-3.571,2.838-6.982,4.24-10.234c1.4-3.252,2.87-6.471,4.398-9.66h5.674
			c1.533,3.189,3,6.408,4.402,9.66c1.4,3.252,2.815,6.663,4.239,10.234c1.423,3.571,2.88,7.343,4.368,11.319
			c1.486,3.974,3.082,8.3,4.781,12.974H195.812L195.812,65.686z M190.008,49.3c-1.359-3.698-2.708-7.28-4.045-10.745
			c-1.341-3.464-2.734-6.79-4.179-9.978c-1.489,3.188-2.901,6.514-4.24,9.978c-1.339,3.465-2.669,7.046-3.985,10.745H190.008
			L190.008,49.3z"/>
		<path id="Fill-8" sketch:type="MSShapeGroup" fill="#FFFFFF" d="M240.189,65.686c-0.724-1.912-1.401-3.793-2.041-5.642
			c-0.637-1.851-1.295-3.729-1.978-5.646H216.15l-4.018,11.287h-6.439c1.701-4.674,3.293-9,4.783-12.974
			c1.486-3.976,2.941-7.748,4.367-11.319s2.838-6.982,4.239-10.234c1.403-3.252,2.87-6.471,4.401-9.66h5.675
			c1.528,3.189,2.995,6.408,4.397,9.66c1.404,3.252,2.815,6.663,4.24,10.234c1.426,3.571,2.883,7.343,4.368,11.319
			c1.487,3.974,3.082,8.3,4.784,12.974H240.189L240.189,65.686z M234.387,49.3c-1.361-3.698-2.711-7.28-4.049-10.745
			c-1.34-3.464-2.732-6.79-4.176-9.978c-1.489,3.188-2.9,6.514-4.24,9.978c-1.339,3.465-2.668,7.046-3.986,10.745H234.387
			L234.387,49.3z"/>
		<path id="Fill-9" sketch:type="MSShapeGroup" fill="#FFFFFF" d="M264.229,61.286c6.457,0,9.689-2.209,9.689-6.631
			c0-1.36-0.286-2.519-0.859-3.474c-0.576-0.957-1.352-1.787-2.33-2.488c-0.978-0.701-2.094-1.307-3.346-1.817
			c-1.255-0.509-2.58-1.021-3.984-1.53c-1.617-0.551-3.146-1.18-4.592-1.881c-1.445-0.701-2.699-1.53-3.762-2.487
			c-1.062-0.956-1.904-2.093-2.52-3.411c-0.616-1.317-0.922-2.911-0.922-4.782c0-3.867,1.315-6.887,3.953-9.055
			c2.635-2.168,6.268-3.252,10.902-3.252c2.678,0,5.109,0.288,7.301,0.862c2.188,0.573,3.793,1.202,4.814,1.881l-1.979,5.037
			c-0.892-0.552-2.223-1.093-3.986-1.626c-1.762-0.531-3.813-0.797-6.15-0.797c-1.189,0-2.295,0.127-3.316,0.382
			c-1.021,0.255-1.914,0.639-2.678,1.148c-0.765,0.51-1.369,1.159-1.816,1.945c-0.448,0.787-0.67,1.712-0.67,2.774
			c0,1.19,0.232,2.189,0.703,2.997c0.465,0.808,1.125,1.52,1.975,2.135c0.849,0.617,1.839,1.18,2.964,1.69
			c1.128,0.511,2.371,1.02,3.733,1.53c1.912,0.765,3.666,1.531,5.256,2.296c1.597,0.765,2.978,1.679,4.146,2.743
			c1.168,1.061,2.073,2.327,2.709,3.795c0.639,1.465,0.957,3.24,0.957,5.322c0,3.868-1.413,6.844-4.24,8.926
			c-2.826,2.084-6.812,3.127-11.953,3.127c-1.746,0-3.351-0.121-4.815-0.353c-1.468-0.233-2.774-0.511-3.921-0.828
			c-1.148-0.319-2.137-0.657-2.967-1.021c-0.83-0.36-1.477-0.67-1.943-0.926l1.85-5.1c0.976,0.552,2.463,1.169,4.463,1.848
			C258.891,60.947,261.335,61.286,264.229,61.286"/>
	</g>
</g>
</svg>
