<?xml version="1.0" encoding="utf-8"?>
<!-- Generator: Adobe Illustrator 16.0.4, SVG Export Plug-In . SVG Version: 6.00 Build 0)  -->
<!DOCTYPE svg PUBLIC "-//W3C//DTD SVG 1.1//EN" "http://www.w3.org/Graphics/SVG/1.1/DTD/svg11.dtd">
<svg version="1.1" id="ubuntu__x5F__orange" xmlns="http://www.w3.org/2000/svg" xmlns:xlink="http://www.w3.org/1999/xlink"
	 x="0px" y="0px" width="107.208px" height="24.076px" viewBox="70.867 73.051 107.208 24.076"
	 enable-background="new 70.867 73.051 107.208 24.076" xml:space="preserve">
<g>
	<circle fill="#DD4814" cx="171.657" cy="79.468" r="6.417"/>
	<path fill="#FFFFFF" d="M167.656,78.697c-0.426,0-0.77,0.345-0.77,0.771c0,0.424,0.344,0.771,0.77,0.771
		c0.427,0,0.771-0.346,0.771-0.771C168.427,79.041,168.082,78.697,167.656,78.697z M173.161,82.201
		c-0.37,0.211-0.495,0.683-0.283,1.051c0.212,0.37,0.684,0.496,1.053,0.283s0.495-0.684,0.282-1.053S173.529,81.987,173.161,82.201z
		 M169.331,79.468c0-0.762,0.377-1.436,0.956-1.843l-0.562-0.944c-0.675,0.451-1.178,1.14-1.386,1.947
		c0.245,0.199,0.399,0.501,0.399,0.841c0,0.338-0.154,0.64-0.399,0.839c0.208,0.807,0.711,1.496,1.386,1.946l0.562-0.944
		C169.709,80.902,169.331,80.229,169.331,79.468z M171.582,77.215c1.177,0,2.142,0.902,2.243,2.054l1.099-0.019
		c-0.055-0.848-0.425-1.611-0.996-2.171c-0.293,0.11-0.632,0.095-0.924-0.075c-0.293-0.169-0.477-0.454-0.528-0.764
		c-0.285-0.078-0.584-0.122-0.895-0.122c-0.533,0-1.037,0.126-1.483,0.347l0.535,0.959C170.923,77.29,171.244,77.215,171.582,77.215
		z M171.582,81.718c-0.338,0-0.66-0.074-0.949-0.209l-0.535,0.96c0.447,0.223,0.951,0.346,1.483,0.346
		c0.31,0,0.609-0.042,0.895-0.121c0.051-0.31,0.234-0.595,0.528-0.765c0.293-0.168,0.631-0.185,0.924-0.074
		c0.57-0.561,0.941-1.323,0.996-2.173l-1.099-0.015C173.724,80.817,172.759,81.718,171.582,81.718z M173.161,76.734
		c0.368,0.212,0.839,0.086,1.052-0.283c0.213-0.367,0.087-0.839-0.282-1.052c-0.369-0.212-0.84-0.086-1.053,0.282
		C172.666,76.05,172.791,76.521,173.161,76.734z"/>
	<g>
		<path fill="#DD4814" d="M83.699,96.303c-0.652,0.163-1.512,0.336-2.581,0.519c-1.071,0.183-2.308,0.275-3.713,0.275
			c-1.222,0-2.251-0.178-3.086-0.535c-0.835-0.355-1.508-0.86-2.017-1.512c-0.51-0.651-0.875-1.42-1.1-2.307
			c-0.225-0.886-0.336-1.869-0.336-2.948v-8.922h2.842v8.311c0,1.936,0.305,3.32,0.917,4.154c0.61,0.837,1.639,1.254,3.085,1.254
			c0.306,0,0.621-0.011,0.947-0.031c0.325-0.021,0.632-0.046,0.917-0.076c0.285-0.031,0.544-0.062,0.779-0.092
			c0.234-0.03,0.402-0.065,0.504-0.107V80.873H83.7L83.699,96.303L83.699,96.303z"/>
		<path fill="#DD4814" d="M90.635,81.575c0.346-0.223,0.872-0.458,1.574-0.702c0.703-0.244,1.512-0.366,2.429-0.366
			c1.141,0,2.154,0.204,3.041,0.61c0.886,0.408,1.635,0.978,2.246,1.71c0.611,0.734,1.074,1.61,1.39,2.627
			c0.315,1.02,0.474,2.14,0.474,3.362c0,1.283-0.189,2.439-0.565,3.467c-0.377,1.029-0.912,1.899-1.604,2.612
			c-0.693,0.713-1.528,1.263-2.506,1.65c-0.977,0.387-2.078,0.581-3.3,0.581c-1.324,0-2.495-0.092-3.513-0.276
			c-1.018-0.183-1.854-0.366-2.505-0.55v-22.76l2.841-0.489L90.635,81.575L90.635,81.575z M90.635,94.285
			c0.286,0.082,0.688,0.159,1.207,0.229c0.52,0.072,1.166,0.107,1.94,0.107c1.528,0,2.75-0.504,3.667-1.512
			c0.917-1.008,1.375-2.439,1.375-4.292c0-0.814-0.082-1.578-0.244-2.292c-0.164-0.712-0.429-1.329-0.795-1.848
			c-0.366-0.52-0.84-0.927-1.42-1.223c-0.581-0.295-1.279-0.443-2.093-0.443c-0.775,0-1.487,0.133-2.138,0.397
			c-0.653,0.265-1.152,0.541-1.498,0.826V94.285L90.635,94.285z"/>
		<path fill="#DD4814" d="M117.643,96.303c-0.652,0.163-1.513,0.336-2.581,0.519c-1.069,0.183-2.308,0.275-3.712,0.275
			c-1.222,0-2.25-0.178-3.086-0.535c-0.835-0.355-1.507-0.86-2.016-1.512c-0.51-0.651-0.875-1.42-1.101-2.307
			c-0.224-0.886-0.336-1.869-0.336-2.948v-8.922h2.841v8.311c0,1.936,0.307,3.32,0.917,4.154c0.612,0.837,1.64,1.254,3.085,1.254
			c0.307,0,0.622-0.011,0.947-0.031c0.326-0.021,0.631-0.046,0.917-0.076c0.285-0.031,0.545-0.062,0.78-0.092
			c0.234-0.03,0.402-0.065,0.503-0.107V80.873h2.842L117.643,96.303L117.643,96.303z"/>
		<path fill="#DD4814" d="M121.737,81.332c0.651-0.164,1.516-0.336,2.597-0.52c1.079-0.183,2.321-0.275,3.727-0.275
			c1.263,0,2.312,0.178,3.146,0.535c0.835,0.356,1.502,0.855,2.002,1.497c0.498,0.642,0.85,1.411,1.054,2.306
			c0.203,0.897,0.306,1.885,0.306,2.964v8.921h-2.842V88.45c0-0.977-0.066-1.812-0.198-2.504c-0.133-0.694-0.352-1.253-0.657-1.68
			c-0.306-0.429-0.713-0.739-1.222-0.933c-0.508-0.194-1.141-0.291-1.894-0.291c-0.307,0-0.622,0.01-0.947,0.031
			c-0.327,0.021-0.637,0.045-0.932,0.077c-0.296,0.03-0.56,0.066-0.795,0.106c-0.234,0.042-0.401,0.072-0.503,0.091V96.76h-2.841
			V81.332L121.737,81.332z"/>
		<path fill="#DD4814" d="M141.137,80.873h6.018v2.383h-6.018v7.333c0,0.794,0.061,1.452,0.183,1.971
			c0.123,0.519,0.306,0.927,0.55,1.222c0.245,0.295,0.55,0.503,0.917,0.626s0.794,0.184,1.283,0.184
			c0.875,0,1.568-0.097,2.078-0.292c0.508-0.193,0.855-0.331,1.039-0.412l0.611,2.322c-0.286,0.143-0.79,0.326-1.513,0.55
			c-0.723,0.224-1.542,0.336-2.459,0.336c-1.081,0-1.971-0.137-2.674-0.412c-0.701-0.276-1.267-0.688-1.694-1.238
			c-0.428-0.549-0.729-1.227-0.902-2.032c-0.174-0.804-0.26-1.736-0.26-2.795V76.444l2.842-0.489V80.873L141.137,80.873z"/>
		<path fill="#DD4814" d="M162.615,96.303c-0.653,0.163-1.513,0.336-2.582,0.519c-1.069,0.183-2.308,0.275-3.712,0.275
			c-1.222,0-2.251-0.178-3.086-0.535c-0.835-0.355-1.508-0.86-2.016-1.512c-0.51-0.651-0.876-1.42-1.101-2.307
			c-0.224-0.886-0.336-1.869-0.336-2.948v-8.922h2.842v8.311c0,1.936,0.306,3.32,0.917,4.154c0.61,0.837,1.639,1.254,3.086,1.254
			c0.306,0,0.621-0.011,0.947-0.031c0.325-0.021,0.63-0.046,0.916-0.076c0.286-0.031,0.545-0.062,0.78-0.092
			c0.233-0.03,0.402-0.065,0.504-0.107V80.873h2.842L162.615,96.303L162.615,96.303z"/>
	</g>
</g>
</svg>
