<svg xmlns="http://www.w3.org/2000/svg" viewBox="0 0 21 32"><defs><style>.cls-1{fill:#e95420;}.cls-2{fill:#fff;}</style></defs><rect class="cls-1" width="21" height="32"/><path class="cls-2" d="M4.55,22.83c.66,0,1.19,.53,1.19,1.18s-.53,1.18-1.19,1.18-1.19-.53-1.19-1.18,.53-1.18,1.19-1.18Zm12.54,.29H5.99c.09,.14,.15,.29,.2,.45,.12,.44,.05,.9-.17,1.28,0,.02-.02,.03-.03,.04h11.11c.29,0,.53-.24,.54-.53v-.71c0-.29-.24-.53-.54-.53Zm-13.73-3.33c0,.65,.53,1.18,1.19,1.18s1.19-.53,1.19-1.18-.53-1.18-1.19-1.18-1.19,.53-1.19,1.18Zm13.73-.91H5.99c.1,.14,.16,.3,.2,.47,.12,.44,.05,.9-.17,1.28,0,0,0,.02-.02,.02h11.09c.29,0,.53-.24,.54-.53v-.71c0-.28-.24-.52-.54-.52ZM3.46,15.58c0,.65,.53,1.18,1.19,1.18s1.19-.53,1.19-1.18-.53-1.18-1.19-1.18-1.19,.53-1.19,1.18Zm13.63-.89H6.1c.09,.14,.15,.29,.2,.45,.12,.44,.05,.9-.17,1.28,0,.02-.02,.03-.03,.04h11c.29,0,.53-.24,.54-.53v-.71c0-.29-.25-.53-.55-.53ZM3.36,28.23c0,.65,.53,1.18,1.19,1.18s1.19-.53,1.19-1.18-.53-1.18-1.19-1.18-1.19,.53-1.19,1.18Zm13.73-.89H5.99c.09,.14,.15,.29,.2,.45,.12,.44,.05,.9-.17,1.28,0,.02-.02,.03-.03,.04h11.11c.29,0,.53-.24,.54-.53v-.71c0-.3-.24-.54-.54-.53Z"/></svg>